eac-font.ufo
<glyph name="fvs2" format="2">
	<advance width="1712" height="1750"/>
	<unicode hex="180C"/>
	<note>
		FVS2
	</note>
	<outline>
		<contour>
			<point x="1063" y="671" type="line"/>
			<point x="1143" y="671" type="line"/>
			<point x="1281" y="1075" type="line"/>
			<point x="1193" y="1075" type="line"/>
			<point x="1104" y="769" type="line"/>
			<point x="1017" y="1075" type="line"/>
			<point x="926" y="1075" type="line"/>
		</contour>
		<contour>
			<point x="101" y="-128" type="line"/>
			<point x="256" y="-128" type="line"/>
			<point x="256" y="-72" type="line"/>
			<point x="159" y="-72" type="line"/>
			<point x="159" y="20" type="line"/>
			<point x="101" y="20" type="line"/>
		</contour>
		<contour>
			<point x="344" y="-133" type="line"/>
			<point x="524" y="-133" type="line"/>
			<point x="524" y="-73" type="line"/>
			<point x="344" y="-73" type="line"/>
		</contour>
		<contour>
			<point x="100" y="118" type="line"/>
			<point x="159" y="118" type="line"/>
			<point x="159" y="297" type="line"/>
			<point x="100" y="297" type="line"/>
		</contour>
		<contour>
			<point x="614" y="-130" type="line"/>
			<point x="793" y="-130" type="line"/>
			<point x="793" y="-72" type="line"/>
			<point x="614" y="-72" type="line"/>
		</contour>
		<contour>
			<point x="100" y="389" type="line"/>
			<point x="159" y="389" type="line"/>
			<point x="159" y="568" type="line"/>
			<point x="100" y="568" type="line"/>
		</contour>
		<contour>
			<point x="101" y="658" type="line"/>
			<point x="161" y="658" type="line"/>
			<point x="161" y="838" type="line"/>
			<point x="101" y="838" type="line"/>
		</contour>
		<contour>
			<point x="902" y="-130" type="line"/>
			<point x="1082" y="-130" type="line"/>
			<point x="1082" y="-72" type="line"/>
			<point x="902" y="-72" type="line"/>
		</contour>
		<contour>
			<point x="641" y="122" type="curve" smooth="yes"/>
			<point x="737" y="122"/>
			<point x="803" y="167"/>
			<point x="803" y="251" type="curve" smooth="yes"/>
			<point x="803" y="310"/>
			<point x="768" y="347"/>
			<point x="697" y="363" type="curve" smooth="yes"/>
			<point x="628" y="379" type="line" smooth="yes"/>
			<point x="600" y="386"/>
			<point x="582" y="391"/>
			<point x="575" y="395" type="curve" smooth="yes"/>
			<point x="562" y="402"/>
			<point x="556" y="414"/>
			<point x="556" y="429" type="curve" smooth="yes"/>
			<point x="556" y="462"/>
			<point x="579" y="478"/>
			<point x="626" y="478" type="curve" smooth="yes"/>
			<point x="679" y="478"/>
			<point x="706" y="457"/>
			<point x="709" y="415" type="curve"/>
			<point x="789" y="415" type="line"/>
			<point x="786" y="499"/>
			<point x="722" y="547"/>
			<point x="633" y="547" type="curve" smooth="yes"/>
			<point x="589" y="547"/>
			<point x="553" y="538"/>
			<point x="525" y="519" type="curve" smooth="yes"/>
			<point x="493" y="496"/>
			<point x="477" y="464"/>
			<point x="477" y="423" type="curve" smooth="yes"/>
			<point x="477" y="383"/>
			<point x="491" y="353"/>
			<point x="519" y="334" type="curve" smooth="yes"/>
			<point x="535" y="323"/>
			<point x="564" y="313"/>
			<point x="605" y="303" type="curve" smooth="yes"/>
			<point x="649" y="294" type="line" smooth="yes"/>
			<point x="697" y="283"/>
			<point x="721" y="267"/>
			<point x="721" y="244" type="curve" smooth="yes"/>
			<point x="721" y="209"/>
			<point x="693" y="191"/>
			<point x="637" y="191" type="curve" smooth="yes"/>
			<point x="586" y="191"/>
			<point x="558" y="213"/>
			<point x="551" y="257" type="curve"/>
			<point x="470" y="257" type="line"/>
			<point x="470" y="211"/>
			<point x="488" y="176"/>
			<point x="524" y="153" type="curve" smooth="yes"/>
			<point x="553" y="132"/>
			<point x="592" y="122"/>
		</contour>
		<contour>
			<point x="100" y="929" type="line"/>
			<point x="159" y="929" type="line"/>
			<point x="159" y="1107" type="line"/>
			<point x="100" y="1107" type="line"/>
		</contour>
		<contour>
			<point x="1188" y="-131" type="line"/>
			<point x="1368" y="-131" type="line"/>
			<point x="1368" y="-73" type="line"/>
			<point x="1188" y="-73" type="line"/>
		</contour>
		<contour>
			<point x="962" y="126" type="curve"/>
			<point x="1234" y="126" type="line"/>
			<point x="1234" y="195" type="line"/>
			<point x="1061" y="195" type="line"/>
			<point x="1080" y="215"/>
			<point x="1099" y="232"/>
			<point x="1119" y="245" type="curve" smooth="yes"/>
			<point x="1151" y="268" type="line" smooth="yes"/>
			<point x="1206" y="307"/>
			<point x="1233" y="350"/>
			<point x="1233" y="398" type="curve" smooth="yes"/>
			<point x="1233" y="477"/>
			<point x="1180" y="525"/>
			<point x="1096" y="525" type="curve" smooth="yes"/>
			<point x="1013" y="525"/>
			<point x="969" y="478"/>
			<point x="966" y="384" type="curve"/>
			<point x="1042" y="384" type="line"/>
			<point x="1045" y="434"/>
			<point x="1064" y="459"/>
			<point x="1100" y="459" type="curve" smooth="yes"/>
			<point x="1136" y="459"/>
			<point x="1154" y="439"/>
			<point x="1154" y="400" type="curve" smooth="yes"/>
			<point x="1154" y="379"/>
			<point x="1146" y="360"/>
			<point x="1130" y="343" type="curve" smooth="yes"/>
			<point x="1119" y="332"/>
			<point x="1095" y="313"/>
			<point x="1060" y="288" type="curve" smooth="yes"/>
			<point x="997" y="242"/>
			<point x="964" y="188"/>
		</contour>
		<contour>
			<point x="101" y="1197" type="line"/>
			<point x="158" y="1197" type="line"/>
			<point x="158" y="1294" type="line"/>
			<point x="249" y="1294" type="line"/>
			<point x="249" y="1349" type="line"/>
			<point x="101" y="1349" type="line"/>
		</contour>
		<contour>
			<point x="1461" y="-131" type="line"/>
			<point x="1608" y="-131" type="line"/>
			<point x="1608" y="21" type="line"/>
			<point x="1552" y="21" type="line"/>
			<point x="1552" y="-75" type="line"/>
			<point x="1461" y="-75" type="line"/>
		</contour>
		<contour>
			<point x="476" y="676" type="line"/>
			<point x="559" y="676" type="line"/>
			<point x="559" y="844" type="line"/>
			<point x="737" y="844" type="line"/>
			<point x="737" y="915" type="line"/>
			<point x="559" y="915" type="line"/>
			<point x="559" y="1008" type="line"/>
			<point x="761" y="1008" type="line"/>
			<point x="761" y="1078" type="line"/>
			<point x="476" y="1078" type="line"/>
		</contour>
		<contour>
			<point x="343" y="1292" type="line"/>
			<point x="522" y="1292" type="line"/>
			<point x="522" y="1349" type="line"/>
			<point x="343" y="1349" type="line"/>
		</contour>
		<contour>
			<point x="1552" y="119" type="line"/>
			<point x="1612" y="119" type="line"/>
			<point x="1612" y="297" type="line"/>
			<point x="1552" y="297" type="line"/>
		</contour>
		<contour>
			<point x="612" y="1291" type="line"/>
			<point x="792" y="1291" type="line"/>
			<point x="792" y="1348" type="line"/>
			<point x="612" y="1348" type="line"/>
		</contour>
		<contour>
			<point x="1552" y="389" type="line"/>
			<point x="1612" y="389" type="line"/>
			<point x="1612" y="567" type="line"/>
			<point x="1552" y="567" type="line"/>
		</contour>
		<contour>
			<point x="901" y="1291" type="line"/>
			<point x="1081" y="1291" type="line"/>
			<point x="1081" y="1348" type="line"/>
			<point x="901" y="1348" type="line"/>
		</contour>
		<contour>
			<point x="1551" y="658" type="line"/>
			<point x="1608" y="658" type="line"/>
			<point x="1608" y="838" type="line"/>
			<point x="1551" y="838" type="line"/>
		</contour>
		<contour>
			<point x="1187" y="1292" type="line"/>
			<point x="1366" y="1292" type="line"/>
			<point x="1366" y="1351" type="line"/>
			<point x="1187" y="1351" type="line"/>
		</contour>
		<contour>
			<point x="1552" y="928" type="line"/>
			<point x="1610" y="928" type="line"/>
			<point x="1610" y="1107" type="line"/>
			<point x="1552" y="1107" type="line"/>
		</contour>
		<contour>
			<point x="1554" y="1199" type="line"/>
			<point x="1610" y="1199" type="line"/>
			<point x="1610" y="1348" type="line"/>
			<point x="1458" y="1348" type="line"/>
			<point x="1458" y="1291" type="line"/>
			<point x="1554" y="1291" type="line"/>
		</contour>
	</outline>
</glyph>
<glyph name="fvs3" format="2">
	<advance width="1712" height="1750"/>
	<unicode hex="180D"/>
	<note>
		FVS3
	</note>
	<outline>
		<contour>
			<point x="1063" y="671" type="line"/>
			<point x="1143" y="671" type="line"/>
			<point x="1281" y="1075" type="line"/>
			<point x="1193" y="1075" type="line"/>
			<point x="1104" y="769" type="line"/>
			<point x="1017" y="1075" type="line"/>
			<point x="926" y="1075" type="line"/>
		</contour>
		<contour>
			<point x="101" y="-128" type="line"/>
			<point x="256" y="-128" type="line"/>
			<point x="256" y="-72" type="line"/>
			<point x="159" y="-72" type="line"/>
			<point x="159" y="20" type="line"/>
			<point x="101" y="20" type="line"/>
		</contour>
		<contour>
			<point x="344" y="-133" type="line"/>
			<point x="524" y="-133" type="line"/>
			<point x="524" y="-73" type="line"/>
			<point x="344" y="-73" type="line"/>
		</contour>
		<contour>
			<point x="100" y="118" type="line"/>
			<point x="159" y="118" type="line"/>
			<point x="159" y="297" type="line"/>
			<point x="100" y="297" type="line"/>
		</contour>
		<contour>
			<point x="614" y="-130" type="line"/>
			<point x="793" y="-130" type="line"/>
			<point x="793" y="-72" type="line"/>
			<point x="614" y="-72" type="line"/>
		</contour>
		<contour>
			<point x="100" y="389" type="line"/>
			<point x="159" y="389" type="line"/>
			<point x="159" y="568" type="line"/>
			<point x="100" y="568" type="line"/>
		</contour>
		<contour>
			<point x="101" y="658" type="line"/>
			<point x="161" y="658" type="line"/>
			<point x="161" y="838" type="line"/>
			<point x="101" y="838" type="line"/>
		</contour>
		<contour>
			<point x="902" y="-130" type="line"/>
			<point x="1082" y="-130" type="line"/>
			<point x="1082" y="-72" type="line"/>
			<point x="902" y="-72" type="line"/>
		</contour>
		<contour>
			<point x="641" y="122" type="curve" smooth="yes"/>
			<point x="737" y="122"/>
			<point x="803" y="167"/>
			<point x="803" y="251" type="curve" smooth="yes"/>
			<point x="803" y="310"/>
			<point x="768" y="347"/>
			<point x="697" y="363" type="curve" smooth="yes"/>
			<point x="628" y="379" type="line" smooth="yes"/>
			<point x="600" y="386"/>
			<point x="582" y="391"/>
			<point x="575" y="395" type="curve" smooth="yes"/>
			<point x="562" y="402"/>
			<point x="556" y="414"/>
			<point x="556" y="429" type="curve" smooth="yes"/>
			<point x="556" y="462"/>
			<point x="579" y="478"/>
			<point x="626" y="478" type="curve" smooth="yes"/>
			<point x="679" y="478"/>
			<point x="706" y="457"/>
			<point x="709" y="415" type="curve"/>
			<point x="789" y="415" type="line"/>
			<point x="786" y="499"/>
			<point x="722" y="547"/>
			<point x="633" y="547" type="curve" smooth="yes"/>
			<point x="589" y="547"/>
			<point x="553" y="538"/>
			<point x="525" y="519" type="curve" smooth="yes"/>
			<point x="493" y="496"/>
			<point x="477" y="464"/>
			<point x="477" y="423" type="curve" smooth="yes"/>
			<point x="477" y="383"/>
			<point x="491" y="353"/>
			<point x="519" y="334" type="curve" smooth="yes"/>
			<point x="535" y="323"/>
			<point x="564" y="313"/>
			<point x="605" y="303" type="curve" smooth="yes"/>
			<point x="649" y="294" type="line" smooth="yes"/>
			<point x="697" y="283"/>
			<point x="721" y="267"/>
			<point x="721" y="244" type="curve" smooth="yes"/>
			<point x="721" y="209"/>
			<point x="693" y="191"/>
			<point x="637" y="191" type="curve" smooth="yes"/>
			<point x="586" y="191"/>
			<point x="558" y="213"/>
			<point x="551" y="257" type="curve"/>
			<point x="470" y="257" type="line"/>
			<point x="470" y="211"/>
			<point x="488" y="176"/>
			<point x="524" y="153" type="curve" smooth="yes"/>
			<point x="553" y="132"/>
			<point x="592" y="122"/>
		</contour>
		<contour>
			<point x="100" y="929" type="line"/>
			<point x="159" y="929" type="line"/>
			<point x="159" y="1107" type="line"/>
			<point x="100" y="1107" type="line"/>
		</contour>
		<contour>
			<point x="1188" y="-131" type="line"/>
			<point x="1368" y="-131" type="line"/>
			<point x="1368" y="-73" type="line"/>
			<point x="1188" y="-73" type="line"/>
		</contour>
		<contour>
			<point x="1111" y="127" type="curve" smooth="yes"/>
			<point x="1191" y="127"/>
			<point x="1249" y="177"/>
			<point x="1249" y="254" type="curve" smooth="yes"/>
			<point x="1249" y="297"/>
			<point x="1220" y="348"/>
			<point x="1188" y="348" type="curve"/>
			<point x="1220" y="360"/>
			<point x="1236" y="386"/>
			<point x="1236" y="427" type="curve" smooth="yes"/>
			<point x="1236" y="496"/>
			<point x="1185" y="536"/>
			<point x="1110" y="536" type="curve" smooth="yes"/>
			<point x="1029" y="536"/>
			<point x="986" y="493"/>
			<point x="981" y="408" type="curve"/>
			<point x="1055" y="408" type="line"/>
			<point x="1054" y="451"/>
			<point x="1071" y="472"/>
			<point x="1107" y="472" type="curve" smooth="yes"/>
			<point x="1141" y="472"/>
			<point x="1158" y="456"/>
			<point x="1158" y="423" type="curve" smooth="yes"/>
			<point x="1158" y="387"/>
			<point x="1132" y="369"/>
			<point x="1079" y="368" type="curve"/>
			<point x="1079" y="311" type="line"/>
			<point x="1138" y="311"/>
			<point x="1167" y="291"/>
			<point x="1167" y="252" type="curve" smooth="yes"/>
			<point x="1167" y="211"/>
			<point x="1148" y="191"/>
			<point x="1111" y="191" type="curve" smooth="yes"/>
			<point x="1072" y="191"/>
			<point x="1052" y="214"/>
			<point x="1052" y="259" type="curve"/>
			<point x="975" y="259" type="line"/>
			<point x="978" y="171"/>
			<point x="1024" y="127"/>
		</contour>
		<contour>
			<point x="101" y="1197" type="line"/>
			<point x="158" y="1197" type="line"/>
			<point x="158" y="1294" type="line"/>
			<point x="249" y="1294" type="line"/>
			<point x="249" y="1349" type="line"/>
			<point x="101" y="1349" type="line"/>
		</contour>
		<contour>
			<point x="1461" y="-131" type="line"/>
			<point x="1608" y="-131" type="line"/>
			<point x="1608" y="21" type="line"/>
			<point x="1552" y="21" type="line"/>
			<point x="1552" y="-75" type="line"/>
			<point x="1461" y="-75" type="line"/>
		</contour>
		<contour>
			<point x="476" y="676" type="line"/>
			<point x="559" y="676" type="line"/>
			<point x="559" y="844" type="line"/>
			<point x="737" y="844" type="line"/>
			<point x="737" y="915" type="line"/>
			<point x="559" y="915" type="line"/>
			<point x="559" y="1008" type="line"/>
			<point x="761" y="1008" type="line"/>
			<point x="761" y="1078" type="line"/>
			<point x="476" y="1078" type="line"/>
		</contour>
		<contour>
			<point x="343" y="1292" type="line"/>
			<point x="522" y="1292" type="line"/>
			<point x="522" y="1349" type="line"/>
			<point x="343" y="1349" type="line"/>
		</contour>
		<contour>
			<point x="1552" y="119" type="line"/>
			<point x="1612" y="119" type="line"/>
			<point x="1612" y="297" type="line"/>
			<point x="1552" y="297" type="line"/>
		</contour>
		<contour>
			<point x="612" y="1291" type="line"/>
			<point x="792" y="1291" type="line"/>
			<point x="792" y="1348" type="line"/>
			<point x="612" y="1348" type="line"/>
		</contour>
		<contour>
			<point x="1552" y="389" type="line"/>
			<point x="1612" y="389" type="line"/>
			<point x="1612" y="567" type="line"/>
			<point x="1552" y="567" type="line"/>
		</contour>
		<contour>
			<point x="901" y="1291" type="line"/>
			<point x="1081" y="1291" type="line"/>
			<point x="1081" y="1348" type="line"/>
			<point x="901" y="1348" type="line"/>
		</contour>
		<contour>
			<point x="1551" y="658" type="line"/>
			<point x="1608" y="658" type="line"/>
			<point x="1608" y="838" type="line"/>
			<point x="1551" y="838" type="line"/>
		</contour>
		<contour>
			<point x="1187" y="1292" type="line"/>
			<point x="1366" y="1292" type="line"/>
			<point x="1366" y="1351" type="line"/>
			<point x="1187" y="1351" type="line"/>
		</contour>
		<contour>
			<point x="1552" y="928" type="line"/>
			<point x="1610" y="928" type="line"/>
			<point x="1610" y="1107" type="line"/>
			<point x="1552" y="1107" type="line"/>
		</contour>
		<contour>
			<point x="1554" y="1199" type="line"/>
			<point x="1610" y="1199" type="line"/>
			<point x="1610" y="1348" type="line"/>
			<point x="1458" y="1348" type="line"/>
			<point x="1458" y="1291" type="line"/>
			<point x="1554" y="1291" type="line"/>
		</contour>
	</outline>
</glyph>
<glyph name="y-mon" format="2">
	<advance width="496" height="1750"/>
	<unicode hex="1836"/>
	<note>
		u1836
	</note>
	<outline>
		<contour>
			<point x="87" y="-70" type="curve"/>
			<point x="125" y="-119" type="line"/>
			<point x="156" y="-95"/>
			<point x="257" y="-26"/>
			<point x="293" y="-7" type="curve"/>
			<point x="237" y="100"/>
			<point x="162" y="271"/>
			<point x="138" y="364" type="curve"/>
			<point x="451" y="364" type="line"/>
			<point x="451" y="444" type="line"/>
			<point x="45" y="444" type="line"/>
			<point x="60" y="355"/>
			<point x="87" y="260"/>
			<point x="127" y="161" type="curve" smooth="yes"/>
			<point x="146" y="113"/>
			<point x="165" y="68"/>
			<point x="186" y="25" type="curve"/>
			<point x="151" y="-4"/>
			<point x="118" y="-36"/>
		</contour>
	</outline>
</glyph>
<glyph name="lh-mon" format="2">
	<advance width="1088" height="1750"/>
	<unicode hex="1840"/>
	<note>
		u1840
	</note>
	<outline>
		<contour>
			<point x="632" y="-182" type="curve"/>
			<point x="901" y="-57" type="line"/>
			<point x="826" y="83"/>
			<point x="790" y="216"/>
			<point x="787" y="364" type="curve"/>
			<point x="1043" y="364" type="line"/>
			<point x="1043" y="444" type="line"/>
			<point x="711" y="444" type="line"/>
			<point x="711" y="366" type="line" smooth="yes"/>
			<point x="711" y="222"/>
			<point x="739" y="94"/>
			<point x="795" y="-17" type="curve"/>
			<point x="671" y="-72" type="line"/>
			<point x="598" y="68"/>
			<point x="567" y="197"/>
			<point x="567" y="364" type="curve" smooth="yes"/>
			<point x="567" y="444" type="line"/>
			<point x="444" y="444" type="line" smooth="yes"/>
			<point x="360" y="444"/>
			<point x="307" y="416"/>
			<point x="285" y="361" type="curve"/>
			<point x="281" y="361" type="line"/>
			<point x="278" y="445" type="line" smooth="yes"/>
			<point x="276" y="500"/>
			<point x="270" y="543"/>
			<point x="259" y="573" type="curve"/>
			<point x="266" y="638"/>
			<point x="291" y="695"/>
			<point x="339" y="766" type="curve"/>
			<point x="339" y="832" type="line"/>
			<point x="219" y="832" type="line" smooth="yes"/>
			<point x="135" y="832"/>
			<point x="82" y="837"/>
			<point x="39" y="868" type="curve"/>
			<point x="39" y="790" type="line"/>
			<point x="76" y="758"/>
			<point x="126" y="752"/>
			<point x="219" y="752" type="curve" smooth="yes"/>
			<point x="247" y="752" type="line"/>
			<point x="228" y="723"/>
			<point x="212" y="686"/>
			<point x="200" y="642" type="curve"/>
			<point x="181" y="649"/>
			<point x="161" y="653"/>
			<point x="139" y="653" type="curve" smooth="yes"/>
			<point x="100" y="653"/>
			<point x="57" y="643"/>
			<point x="10" y="623" type="curve"/>
			<point x="10" y="550" type="line"/>
			<point x="51" y="567"/>
			<point x="87" y="575"/>
			<point x="118" y="575" type="curve" smooth="yes"/>
			<point x="175" y="575"/>
			<point x="195" y="529"/>
			<point x="200" y="437" type="curve" smooth="yes"/>
			<point x="226" y="74" type="line"/>
			<point x="292" y="74" type="line"/>
			<point x="302" y="219" type="line" smooth="yes"/>
			<point x="307" y="294"/>
			<point x="323" y="331"/>
			<point x="361" y="350" type="curve" smooth="yes"/>
			<point x="380" y="359"/>
			<point x="408" y="364"/>
			<point x="445" y="364" type="curve" smooth="yes"/>
			<point x="492" y="364" type="line"/>
			<point x="492" y="168"/>
			<point x="537" y="-5"/>
		</contour>
	</outline>
</glyph>
<glyph name="zwnj" format="2">
	<advance width="1712" height="1750"/>
	<unicode hex="200C"/>
	<note>
		ZWNJ
	</note>
	<outline>
		<contour>
			<point x="915" y="661" type="line"/>
			<point x="994" y="661" type="line"/>
			<point x="1042" y="897" type="line"/>
			<point x="1056" y="976" type="line"/>
			<point x="1119" y="661" type="line"/>
			<point x="1201" y="661" type="line"/>
			<point x="1313" y="1066" type="line"/>
			<point x="1228" y="1066" type="line"/>
			<point x="1173" y="832" type="line"/>
			<point x="1162" y="769" type="line"/>
			<point x="1101" y="1066" type="line"/>
			<point x="1012" y="1066" type="line"/>
			<point x="966" y="833" type="line"/>
			<point x="955" y="769" type="line"/>
			<point x="944" y="835" type="line"/>
			<point x="890" y="1066" type="line"/>
			<point x="799" y="1066" type="line"/>
		</contour>
		<contour>
			<point x="101" y="-128" type="line"/>
			<point x="256" y="-128" type="line"/>
			<point x="256" y="-72" type="line"/>
			<point x="159" y="-72" type="line"/>
			<point x="159" y="20" type="line"/>
			<point x="101" y="20" type="line"/>
		</contour>
		<contour>
			<point x="344" y="-133" type="line"/>
			<point x="524" y="-133" type="line"/>
			<point x="524" y="-73" type="line"/>
			<point x="344" y="-73" type="line"/>
		</contour>
		<contour>
			<point x="100" y="118" type="line"/>
			<point x="159" y="118" type="line"/>
			<point x="159" y="297" type="line"/>
			<point x="100" y="297" type="line"/>
		</contour>
		<contour>
			<point x="614" y="-130" type="line"/>
			<point x="793" y="-130" type="line"/>
			<point x="793" y="-72" type="line"/>
			<point x="614" y="-72" type="line"/>
		</contour>
		<contour>
			<point x="100" y="389" type="line"/>
			<point x="159" y="389" type="line"/>
			<point x="159" y="568" type="line"/>
			<point x="100" y="568" type="line"/>
		</contour>
		<contour>
			<point x="101" y="658" type="line"/>
			<point x="161" y="658" type="line"/>
			<point x="161" y="838" type="line"/>
			<point x="101" y="838" type="line"/>
		</contour>
		<contour>
			<point x="902" y="-130" type="line"/>
			<point x="1082" y="-130" type="line"/>
			<point x="1082" y="-72" type="line"/>
			<point x="902" y="-72" type="line"/>
		</contour>
		<contour>
			<point x="401" y="137" type="line"/>
			<point x="482" y="137" type="line"/>
			<point x="482" y="424" type="line"/>
			<point x="646" y="137" type="line"/>
			<point x="731" y="137" type="line"/>
			<point x="731" y="541" type="line"/>
			<point x="652" y="541" type="line"/>
			<point x="652" y="259" type="line"/>
			<point x="492" y="541" type="line"/>
			<point x="401" y="541" type="line"/>
		</contour>
		<contour>
			<point x="100" y="929" type="line"/>
			<point x="159" y="929" type="line"/>
			<point x="159" y="1107" type="line"/>
			<point x="100" y="1107" type="line"/>
		</contour>
		<contour>
			<point x="1188" y="-131" type="line"/>
			<point x="1368" y="-131" type="line"/>
			<point x="1368" y="-73" type="line"/>
			<point x="1188" y="-73" type="line"/>
		</contour>
		<contour>
			<point x="1079" y="133" type="curve" smooth="yes"/>
			<point x="1163" y="133"/>
			<point x="1205" y="178"/>
			<point x="1205" y="267" type="curve" smooth="yes"/>
			<point x="1205" y="547" type="line"/>
			<point x="1121" y="547" type="line"/>
			<point x="1121" y="265" type="line" smooth="yes"/>
			<point x="1121" y="223"/>
			<point x="1106" y="202"/>
			<point x="1076" y="202" type="curve" smooth="yes"/>
			<point x="1043" y="202"/>
			<point x="1026" y="231"/>
			<point x="1026" y="288" type="curve" smooth="yes"/>
			<point x="1026" y="297" type="line"/>
			<point x="946" y="297" type="line"/>
			<point x="946" y="288" type="line" smooth="yes"/>
			<point x="946" y="185"/>
			<point x="990" y="133"/>
		</contour>
		<contour>
			<point x="400" y="669" type="line"/>
			<point x="715" y="669" type="line"/>
			<point x="715" y="740" type="line"/>
			<point x="503" y="740" type="line"/>
			<point x="715" y="1005" type="line"/>
			<point x="715" y="1072" type="line"/>
			<point x="405" y="1072" type="line"/>
			<point x="405" y="1002" type="line"/>
			<point x="609" y="1002" type="line"/>
			<point x="400" y="740" type="line"/>
		</contour>
		<contour>
			<point x="101" y="1197" type="line"/>
			<point x="158" y="1197" type="line"/>
			<point x="158" y="1294" type="line"/>
			<point x="249" y="1294" type="line"/>
			<point x="249" y="1349" type="line"/>
			<point x="101" y="1349" type="line"/>
		</contour>
		<contour>
			<point x="1461" y="-131" type="line"/>
			<point x="1608" y="-131" type="line"/>
			<point x="1608" y="21" type="line"/>
			<point x="1552" y="21" type="line"/>
			<point x="1552" y="-75" type="line"/>
			<point x="1461" y="-75" type="line"/>
		</contour>
		<contour>
			<point x="343" y="1292" type="line"/>
			<point x="522" y="1292" type="line"/>
			<point x="522" y="1349" type="line"/>
			<point x="343" y="1349" type="line"/>
		</contour>
		<contour>
			<point x="1552" y="119" type="line"/>
			<point x="1612" y="119" type="line"/>
			<point x="1612" y="297" type="line"/>
			<point x="1552" y="297" type="line"/>
		</contour>
		<contour>
			<point x="612" y="1291" type="line"/>
			<point x="792" y="1291" type="line"/>
			<point x="792" y="1348" type="line"/>
			<point x="612" y="1348" type="line"/>
		</contour>
		<contour>
			<point x="1552" y="389" type="line"/>
			<point x="1612" y="389" type="line"/>
			<point x="1612" y="567" type="line"/>
			<point x="1552" y="567" type="line"/>
		</contour>
		<contour>
			<point x="901" y="1291" type="line"/>
			<point x="1081" y="1291" type="line"/>
			<point x="1081" y="1348" type="line"/>
			<point x="901" y="1348" type="line"/>
		</contour>
		<contour>
			<point x="1551" y="658" type="line"/>
			<point x="1608" y="658" type="line"/>
			<point x="1608" y="838" type="line"/>
			<point x="1551" y="838" type="line"/>
		</contour>
		<contour>
			<point x="1187" y="1292" type="line"/>
			<point x="1366" y="1292" type="line"/>
			<point x="1366" y="1351" type="line"/>
			<point x="1187" y="1351" type="line"/>
		</contour>
		<contour>
			<point x="1552" y="928" type="line"/>
			<point x="1610" y="928" type="line"/>
			<point x="1610" y="1107" type="line"/>
			<point x="1552" y="1107" type="line"/>
		</contour>
		<contour>
			<point x="1554" y="1199" type="line"/>
			<point x="1610" y="1199" type="line"/>
			<point x="1610" y="1348" type="line"/>
			<point x="1458" y="1348" type="line"/>
			<point x="1458" y="1291" type="line"/>
			<point x="1554" y="1291" type="line"/>
		</contour>
	</outline>
</glyph>
<glyph name="nnbsp" format="2">
	<advance width="1712" height="1750"/>
	<unicode hex="202F"/>
	<note>
		NNBSP
	</note>
	<outline>
		<contour>
			<point x="629" y="130" type="curve" smooth="yes"/>
			<point x="725" y="130"/>
			<point x="792" y="175"/>
			<point x="792" y="259" type="curve" smooth="yes"/>
			<point x="792" y="314"/>
			<point x="757" y="351"/>
			<point x="686" y="369" type="curve" smooth="yes"/>
			<point x="617" y="387" type="line" smooth="yes"/>
			<point x="586" y="394"/>
			<point x="569" y="400"/>
			<point x="564" y="403" type="curve" smooth="yes"/>
			<point x="551" y="410"/>
			<point x="545" y="421"/>
			<point x="545" y="435" type="curve" smooth="yes"/>
			<point x="545" y="470"/>
			<point x="569" y="487"/>
			<point x="617" y="487" type="curve" smooth="yes"/>
			<point x="668" y="487"/>
			<point x="695" y="466"/>
			<point x="697" y="424" type="curve"/>
			<point x="779" y="424" type="line"/>
			<point x="775" y="507"/>
			<point x="711" y="556"/>
			<point x="622" y="556" type="curve" smooth="yes"/>
			<point x="578" y="556"/>
			<point x="542" y="546"/>
			<point x="514" y="527" type="curve" smooth="yes"/>
			<point x="482" y="504"/>
			<point x="466" y="472"/>
			<point x="466" y="430" type="curve" smooth="yes"/>
			<point x="466" y="391"/>
			<point x="480" y="361"/>
			<point x="508" y="342" type="curve" smooth="yes"/>
			<point x="524" y="331"/>
			<point x="553" y="321"/>
			<point x="594" y="311" type="curve" smooth="yes"/>
			<point x="637" y="302" type="line" smooth="yes"/>
			<point x="686" y="291"/>
			<point x="710" y="275"/>
			<point x="710" y="252" type="curve" smooth="yes"/>
			<point x="710" y="216"/>
			<point x="682" y="198"/>
			<point x="626" y="198" type="curve" smooth="yes"/>
			<point x="575" y="198"/>
			<point x="547" y="220"/>
			<point x="542" y="265" type="curve"/>
			<point x="459" y="265" type="line"/>
			<point x="459" y="219"/>
			<point x="477" y="184"/>
			<point x="513" y="161" type="curve" smooth="yes"/>
			<point x="542" y="140"/>
			<point x="581" y="130"/>
		</contour>
		<contour>
			<point x="101" y="-128" type="line"/>
			<point x="256" y="-128" type="line"/>
			<point x="256" y="-72" type="line"/>
			<point x="159" y="-72" type="line"/>
			<point x="159" y="20" type="line"/>
			<point x="101" y="20" type="line"/>
		</contour>
		<contour>
			<point x="344" y="-133" type="line"/>
			<point x="524" y="-133" type="line"/>
			<point x="524" y="-73" type="line"/>
			<point x="344" y="-73" type="line"/>
		</contour>
		<contour>
			<point x="100" y="118" type="line"/>
			<point x="159" y="118" type="line"/>
			<point x="159" y="297" type="line"/>
			<point x="100" y="297" type="line"/>
		</contour>
		<contour>
			<point x="614" y="-130" type="line"/>
			<point x="793" y="-130" type="line"/>
			<point x="793" y="-72" type="line"/>
			<point x="614" y="-72" type="line"/>
		</contour>
		<contour>
			<point x="100" y="389" type="line"/>
			<point x="159" y="389" type="line"/>
			<point x="159" y="568" type="line"/>
			<point x="100" y="568" type="line"/>
		</contour>
		<contour>
			<point x="101" y="658" type="line"/>
			<point x="161" y="658" type="line"/>
			<point x="161" y="838" type="line"/>
			<point x="101" y="838" type="line"/>
		</contour>
		<contour>
			<point x="902" y="-130" type="line"/>
			<point x="1082" y="-130" type="line"/>
			<point x="1082" y="-72" type="line"/>
			<point x="902" y="-72" type="line"/>
		</contour>
		<contour>
			<point x="100" y="929" type="line"/>
			<point x="159" y="929" type="line"/>
			<point x="159" y="1107" type="line"/>
			<point x="100" y="1107" type="line"/>
		</contour>
		<contour>
			<point x="1188" y="-131" type="line"/>
			<point x="1368" y="-131" type="line"/>
			<point x="1368" y="-73" type="line"/>
			<point x="1188" y="-73" type="line"/>
		</contour>
		<contour>
			<point x="260" y="660" type="line"/>
			<point x="340" y="660" type="line"/>
			<point x="340" y="947" type="line"/>
			<point x="504" y="660" type="line"/>
			<point x="589" y="660" type="line"/>
			<point x="589" y="1064" type="line"/>
			<point x="511" y="1064" type="line"/>
			<point x="511" y="781" type="line"/>
			<point x="349" y="1064" type="line"/>
			<point x="260" y="1064" type="line"/>
		</contour>
		<contour>
			<point x="951" y="138" type="line"/>
			<point x="1034" y="138" type="line"/>
			<point x="1034" y="283" type="line"/>
			<point x="1119" y="283" type="line" smooth="yes"/>
			<point x="1212" y="283"/>
			<point x="1259" y="327"/>
			<point x="1259" y="414" type="curve" smooth="yes"/>
			<point x="1259" y="499"/>
			<point x="1214" y="542"/>
			<point x="1125" y="542" type="curve" smooth="yes"/>
			<point x="951" y="542" type="line"/>
		</contour>
		<contour>
			<point x="101" y="1197" type="line"/>
			<point x="158" y="1197" type="line"/>
			<point x="158" y="1294" type="line"/>
			<point x="249" y="1294" type="line"/>
			<point x="249" y="1349" type="line"/>
			<point x="101" y="1349" type="line"/>
		</contour>
		<contour>
			<point x="1461" y="-131" type="line"/>
			<point x="1608" y="-131" type="line"/>
			<point x="1608" y="21" type="line"/>
			<point x="1552" y="21" type="line"/>
			<point x="1552" y="-75" type="line"/>
			<point x="1461" y="-75" type="line"/>
		</contour>
		<contour>
			<point x="1113" y="354" type="curve" smooth="yes"/>
			<point x="1034" y="354" type="line"/>
			<point x="1034" y="472" type="line"/>
			<point x="1113" y="472" type="line" smooth="yes"/>
			<point x="1155" y="472"/>
			<point x="1176" y="453"/>
			<point x="1176" y="414" type="curve" smooth="yes"/>
			<point x="1176" y="374"/>
			<point x="1155" y="354"/>
		</contour>
		<contour>
			<point x="684" y="660" type="line"/>
			<point x="764" y="660" type="line"/>
			<point x="764" y="947" type="line"/>
			<point x="928" y="660" type="line"/>
			<point x="1013" y="660" type="line"/>
			<point x="1013" y="1064" type="line"/>
			<point x="934" y="1064" type="line"/>
			<point x="934" y="781" type="line"/>
			<point x="774" y="1064" type="line"/>
			<point x="684" y="1064" type="line"/>
		</contour>
		<contour>
			<point x="343" y="1292" type="line"/>
			<point x="522" y="1292" type="line"/>
			<point x="522" y="1349" type="line"/>
			<point x="343" y="1349" type="line"/>
		</contour>
		<contour>
			<point x="1552" y="119" type="line"/>
			<point x="1612" y="119" type="line"/>
			<point x="1612" y="297" type="line"/>
			<point x="1552" y="297" type="line"/>
		</contour>
		<contour>
			<point x="612" y="1291" type="line"/>
			<point x="792" y="1291" type="line"/>
			<point x="792" y="1348" type="line"/>
			<point x="612" y="1348" type="line"/>
		</contour>
		<contour>
			<point x="1552" y="389" type="line"/>
			<point x="1612" y="389" type="line"/>
			<point x="1612" y="567" type="line"/>
			<point x="1552" y="567" type="line"/>
		</contour>
		<contour>
			<point x="1292" y="730" type="curve" smooth="yes"/>
			<point x="1194" y="730" type="line"/>
			<point x="1194" y="838" type="line"/>
			<point x="1294" y="838" type="line" smooth="yes"/>
			<point x="1339" y="838"/>
			<point x="1361" y="821"/>
			<point x="1361" y="788" type="curve" smooth="yes"/>
			<point x="1361" y="749"/>
			<point x="1338" y="730"/>
		</contour>
		<contour>
			<point x="1113" y="660" type="line"/>
			<point x="1295" y="660" type="line" smooth="yes"/>
			<point x="1396" y="660"/>
			<point x="1447" y="700"/>
			<point x="1447" y="781" type="curve" smooth="yes"/>
			<point x="1447" y="830"/>
			<point x="1426" y="861"/>
			<point x="1384" y="876" type="curve"/>
			<point x="1417" y="893"/>
			<point x="1433" y="921"/>
			<point x="1433" y="960" type="curve" smooth="yes"/>
			<point x="1433" y="1029"/>
			<point x="1392" y="1064"/>
			<point x="1310" y="1064" type="curve" smooth="yes"/>
			<point x="1113" y="1064" type="line"/>
		</contour>
		<contour>
			<point x="1292" y="905" type="curve" smooth="yes"/>
			<point x="1194" y="905" type="line"/>
			<point x="1194" y="994" type="line"/>
			<point x="1283" y="994" type="line" smooth="yes"/>
			<point x="1330" y="994"/>
			<point x="1353" y="979"/>
			<point x="1353" y="950" type="curve" smooth="yes"/>
			<point x="1353" y="920"/>
			<point x="1333" y="905"/>
		</contour>
		<contour>
			<point x="901" y="1291" type="line"/>
			<point x="1081" y="1291" type="line"/>
			<point x="1081" y="1348" type="line"/>
			<point x="901" y="1348" type="line"/>
		</contour>
		<contour>
			<point x="1551" y="658" type="line"/>
			<point x="1608" y="658" type="line"/>
			<point x="1608" y="838" type="line"/>
			<point x="1551" y="838" type="line"/>
		</contour>
		<contour>
			<point x="1187" y="1292" type="line"/>
			<point x="1366" y="1292" type="line"/>
			<point x="1366" y="1351" type="line"/>
			<point x="1187" y="1351" type="line"/>
		</contour>
		<contour>
			<point x="1552" y="928" type="line"/>
			<point x="1610" y="928" type="line"/>
			<point x="1610" y="1107" type="line"/>
			<point x="1552" y="1107" type="line"/>
		</contour>
		<contour>
			<point x="1554" y="1199" type="line"/>
			<point x="1610" y="1199" type="line"/>
			<point x="1610" y="1348" type="line"/>
			<point x="1458" y="1348" type="line"/>
			<point x="1458" y="1291" type="line"/>
			<point x="1554" y="1291" type="line"/>
		</contour>
	</outline>
</glyph>
<glyph name="BA.fina" format="2">
	<advance width="1124" height="1750"/>
	<note>
		u182A_1820.fin
	</note>
	<outline>
		<contour>
			<point x="818" y="-264" type="curve"/>
			<point x="900" y="-264" type="line"/>
			<point x="886" y="-238"/>
			<point x="879" y="-212"/>
			<point x="879" y="-187" type="curve" smooth="yes"/>
			<point x="879" y="-127"/>
			<point x="894" y="-100"/>
			<point x="946" y="-31" type="curve" smooth="yes"/>
			<point x="1033" y="82"/>
			<point x="1079" y="164"/>
			<point x="1079" y="245" type="curve" smooth="yes"/>
			<point x="1079" y="374"/>
			<point x="1000" y="444"/>
			<point x="848" y="444" type="curve" smooth="yes"/>
			<point x="606" y="444" type="line"/>
			<point x="589" y="577"/>
			<point x="540" y="680"/>
			<point x="460" y="738" type="curve" smooth="yes"/>
			<point x="419" y="767"/>
			<point x="367" y="782"/>
			<point x="306" y="782" type="curve" smooth="yes"/>
			<point x="174" y="782"/>
			<point x="81" y="718"/>
			<point x="34" y="603" type="curve" smooth="yes"/>
			<point x="11" y="547"/>
			<point x="-1" y="482"/>
			<point x="-1" y="408" type="curve" smooth="yes"/>
			<point x="-1" y="163"/>
			<point x="74" y="40"/>
			<point x="224" y="40" type="curve" smooth="yes"/>
			<point x="295" y="40"/>
			<point x="351" y="82"/>
			<point x="382" y="153" type="curve" smooth="yes"/>
			<point x="397" y="188"/>
			<point x="405" y="229"/>
			<point x="405" y="275" type="curve" smooth="yes"/>
			<point x="405" y="315"/>
			<point x="393" y="412"/>
			<point x="382" y="444" type="curve"/>
			<point x="78" y="444" type="line"/>
			<point x="79" y="544"/>
			<point x="116" y="622"/>
			<point x="182" y="666" type="curve" smooth="yes"/>
			<point x="215" y="688"/>
			<point x="257" y="699"/>
			<point x="306" y="699" type="curve" smooth="yes"/>
			<point x="446" y="699"/>
			<point x="517" y="589"/>
			<point x="533" y="364" type="curve" smooth="yes"/>
			<point x="552" y="96" type="line"/>
			<point x="618" y="96" type="line"/>
			<point x="637" y="364" type="line"/>
			<point x="847" y="364" type="line" smooth="yes"/>
			<point x="952" y="364"/>
			<point x="1001" y="325"/>
			<point x="1001" y="245" type="curve" smooth="yes"/>
			<point x="1001" y="181"/>
			<point x="969" y="125"/>
			<point x="894" y="28" type="curve" smooth="yes"/>
			<point x="831" y="-55"/>
			<point x="799" y="-115"/>
			<point x="799" y="-187" type="curve" smooth="yes"/>
			<point x="799" y="-214"/>
			<point x="805" y="-240"/>
		</contour>
		<contour>
			<point x="218" y="123" type="curve" smooth="yes"/>
			<point x="127" y="123"/>
			<point x="80" y="203"/>
			<point x="78" y="364" type="curve"/>
			<point x="316" y="364" type="line"/>
			<point x="323" y="346"/>
			<point x="326" y="316"/>
			<point x="326" y="275" type="curve" smooth="yes"/>
			<point x="326" y="186"/>
			<point x="289" y="123"/>
		</contour>
	</outline>
</glyph>
<glyph name="BA.medi" format="2">
	<advance width="817" height="1750"/>
	<note>
		u182A_1820.med
	</note>
	<outline>
		<contour>
			<point x="225" y="40" type="curve" smooth="yes"/>
			<point x="294" y="40"/>
			<point x="350" y="81"/>
			<point x="382" y="152" type="curve" smooth="yes"/>
			<point x="397" y="187"/>
			<point x="405" y="228"/>
			<point x="405" y="275" type="curve" smooth="yes"/>
			<point x="405" y="315"/>
			<point x="393" y="412"/>
			<point x="382" y="444" type="curve"/>
			<point x="78" y="444" type="line"/>
			<point x="79" y="544"/>
			<point x="116" y="622"/>
			<point x="182" y="666" type="curve" smooth="yes"/>
			<point x="215" y="688"/>
			<point x="257" y="699"/>
			<point x="306" y="699" type="curve" smooth="yes"/>
			<point x="446" y="699"/>
			<point x="517" y="589"/>
			<point x="533" y="364" type="curve" smooth="yes"/>
			<point x="552" y="96" type="line"/>
			<point x="618" y="96" type="line"/>
			<point x="637" y="364" type="line"/>
			<point x="847" y="364" type="line"/>
			<point x="847" y="444" type="line"/>
			<point x="606" y="444" type="line"/>
			<point x="589" y="577"/>
			<point x="540" y="680"/>
			<point x="460" y="738" type="curve" smooth="yes"/>
			<point x="419" y="767"/>
			<point x="367" y="782"/>
			<point x="306" y="782" type="curve" smooth="yes"/>
			<point x="174" y="782"/>
			<point x="81" y="718"/>
			<point x="34" y="603" type="curve" smooth="yes"/>
			<point x="11" y="547"/>
			<point x="-1" y="482"/>
			<point x="-1" y="408" type="curve" smooth="yes"/>
			<point x="-1" y="163"/>
			<point x="74" y="40"/>
		</contour>
		<contour>
			<point x="218" y="123" type="curve" smooth="yes"/>
			<point x="127" y="123"/>
			<point x="80" y="203"/>
			<point x="78" y="364" type="curve"/>
			<point x="316" y="364" type="line"/>
			<point x="323" y="346"/>
			<point x="326" y="316"/>
			<point x="326" y="275" type="curve" smooth="yes"/>
			<point x="326" y="186"/>
			<point x="289" y="123"/>
		</contour>
	</outline>
</glyph>
<glyph name="BUI.medi" format="2">
	<advance width="1178" height="1750"/>
	<note>
		u182A_1825.medV1
	</note>
	<outline>
		<contour>
			<point x="990" y="-67" type="curve"/>
			<point x="1063" y="-31" type="line"/>
			<point x="990" y="98"/>
			<point x="935" y="229"/>
			<point x="896" y="364" type="curve"/>
			<point x="1208" y="364" type="line"/>
			<point x="1208" y="444" type="line"/>
			<point x="702" y="444" type="line"/>
			<point x="687" y="583"/>
			<point x="626" y="686"/>
			<point x="529" y="741" type="curve" smooth="yes"/>
			<point x="480" y="768"/>
			<point x="424" y="782"/>
			<point x="359" y="782" type="curve" smooth="yes"/>
			<point x="211" y="782"/>
			<point x="100" y="710"/>
			<point x="42" y="587" type="curve" smooth="yes"/>
			<point x="13" y="526"/>
			<point x="-1" y="455"/>
			<point x="-1" y="375" type="curve" smooth="yes"/>
			<point x="-1" y="152"/>
			<point x="63" y="40"/>
			<point x="203" y="40" type="curve" smooth="yes"/>
			<point x="268" y="40"/>
			<point x="326" y="74"/>
			<point x="350" y="135" type="curve"/>
			<point x="378" y="72"/>
			<point x="427" y="40"/>
			<point x="492" y="40" type="curve" smooth="yes"/>
			<point x="635" y="40"/>
			<point x="705" y="147"/>
			<point x="706" y="364" type="curve"/>
			<point x="817" y="364" type="line"/>
			<point x="856" y="219"/>
			<point x="913" y="75"/>
		</contour>
		<contour>
			<point x="202" y="123" type="curve" smooth="yes"/>
			<point x="134" y="123"/>
			<point x="99" y="164"/>
			<point x="87" y="241" type="curve" smooth="yes"/>
			<point x="81" y="278"/>
			<point x="78" y="319"/>
			<point x="78" y="364" type="curve"/>
			<point x="313" y="364" type="line"/>
			<point x="313" y="281" type="line" smooth="yes"/>
			<point x="313" y="186"/>
			<point x="271" y="123"/>
		</contour>
		<contour>
			<point x="492" y="123" type="curve" smooth="yes"/>
			<point x="425" y="123"/>
			<point x="392" y="177"/>
			<point x="392" y="286" type="curve" smooth="yes"/>
			<point x="392" y="364" type="line"/>
			<point x="627" y="364" type="line"/>
			<point x="624" y="244"/>
			<point x="609" y="178"/>
			<point x="571" y="147" type="curve" smooth="yes"/>
			<point x="552" y="131"/>
			<point x="525" y="123"/>
		</contour>
		<contour>
			<point x="622" y="444" type="curve"/>
			<point x="81" y="444" type="line"/>
			<point x="104" y="614"/>
			<point x="196" y="699"/>
			<point x="359" y="699" type="curve" smooth="yes"/>
			<point x="459" y="699"/>
			<point x="533" y="656"/>
			<point x="579" y="578" type="curve" smooth="yes"/>
			<point x="601" y="539"/>
			<point x="615" y="495"/>
		</contour>
	</outline>
</glyph>
<glyph name="BW.fina" format="2">
	<advance width="1210" height="1750"/>
	<note>
		u182A_1827.fin
	</note>
	<outline>
		<contour>
			<point x="812" y="-119" type="curve" smooth="yes"/>
			<point x="851" y="-119"/>
			<point x="879" y="-108"/>
			<point x="894" y="-85" type="curve"/>
			<point x="894" y="6" type="line"/>
			<point x="875" y="-22"/>
			<point x="848" y="-36"/>
			<point x="812" y="-36" type="curve" smooth="yes"/>
			<point x="764" y="-36"/>
			<point x="724" y="9"/>
			<point x="679" y="106" type="curve" smooth="yes"/>
			<point x="640" y="189"/>
			<point x="612" y="275"/>
			<point x="595" y="364" type="curve"/>
			<point x="990" y="364" type="line" smooth="yes"/>
			<point x="1059" y="364"/>
			<point x="1088" y="335"/>
			<point x="1088" y="279" type="curve" smooth="yes"/>
			<point x="1088" y="236"/>
			<point x="1081" y="197"/>
			<point x="1066" y="162" type="curve"/>
			<point x="1140" y="162" type="line"/>
			<point x="1157" y="196"/>
			<point x="1165" y="235"/>
			<point x="1165" y="279" type="curve" smooth="yes"/>
			<point x="1165" y="389"/>
			<point x="1107" y="444"/>
			<point x="990" y="444" type="curve" smooth="yes"/>
			<point x="580" y="444" type="line"/>
			<point x="554" y="590"/>
			<point x="505" y="689"/>
			<point x="434" y="740" type="curve" smooth="yes"/>
			<point x="395" y="768"/>
			<point x="345" y="782"/>
			<point x="284" y="782" type="curve" smooth="yes"/>
			<point x="159" y="782"/>
			<point x="73" y="716"/>
			<point x="30" y="601" type="curve" smooth="yes"/>
			<point x="9" y="544"/>
			<point x="-1" y="480"/>
			<point x="-1" y="408" type="curve" smooth="yes"/>
			<point x="-1" y="163"/>
			<point x="74" y="40"/>
			<point x="225" y="40" type="curve" smooth="yes"/>
			<point x="294" y="40"/>
			<point x="351" y="81"/>
			<point x="382" y="153" type="curve" smooth="yes"/>
			<point x="397" y="188"/>
			<point x="405" y="229"/>
			<point x="405" y="275" type="curve" smooth="yes"/>
			<point x="405" y="315"/>
			<point x="393" y="412"/>
			<point x="382" y="444" type="curve"/>
			<point x="78" y="444" type="line"/>
			<point x="79" y="543"/>
			<point x="111" y="622"/>
			<point x="171" y="666" type="curve" smooth="yes"/>
			<point x="201" y="688"/>
			<point x="239" y="699"/>
			<point x="284" y="699" type="curve" smooth="yes"/>
			<point x="375" y="699"/>
			<point x="430" y="654"/>
			<point x="466" y="567" type="curve" smooth="yes"/>
			<point x="483" y="525"/>
			<point x="496" y="475"/>
			<point x="506" y="418" type="curve" smooth="yes"/>
			<point x="531" y="276"/>
			<point x="569" y="150"/>
			<point x="621" y="41" type="curve" smooth="yes"/>
			<point x="672" y="-66"/>
			<point x="724" y="-119"/>
		</contour>
		<contour>
			<point x="218" y="123" type="curve" smooth="yes"/>
			<point x="127" y="123"/>
			<point x="80" y="203"/>
			<point x="78" y="364" type="curve"/>
			<point x="316" y="364" type="line"/>
			<point x="323" y="346"/>
			<point x="326" y="316"/>
			<point x="326" y="275" type="curve" smooth="yes"/>
			<point x="326" y="186"/>
			<point x="289" y="123"/>
		</contour>
	</outline>
</glyph>
<glyph name="BW.init" format="2">
	<advance width="1006" height="1750"/>
	<note>
		u182A_1827.ini
	</note>
	<outline>
		<contour>
			<point x="858" y="-119" type="curve" smooth="yes"/>
			<point x="897" y="-119"/>
			<point x="925" y="-108"/>
			<point x="940" y="-85" type="curve"/>
			<point x="940" y="6" type="line"/>
			<point x="921" y="-22"/>
			<point x="893" y="-36"/>
			<point x="855" y="-36" type="curve" smooth="yes"/>
			<point x="820" y="-36"/>
			<point x="784" y="-3"/>
			<point x="747" y="63" type="curve" smooth="yes"/>
			<point x="730" y="92"/>
			<point x="715" y="125"/>
			<point x="701" y="161" type="curve" smooth="yes"/>
			<point x="672" y="234"/>
			<point x="652" y="301"/>
			<point x="641" y="364" type="curve"/>
			<point x="1036" y="364" type="line"/>
			<point x="1036" y="444" type="line"/>
			<point x="626" y="444" type="line"/>
			<point x="601" y="587"/>
			<point x="556" y="687"/>
			<point x="480" y="740" type="curve" smooth="yes"/>
			<point x="441" y="768"/>
			<point x="391" y="782"/>
			<point x="330" y="782" type="curve" smooth="yes"/>
			<point x="205" y="782"/>
			<point x="119" y="716"/>
			<point x="76" y="601" type="curve" smooth="yes"/>
			<point x="55" y="544"/>
			<point x="45" y="480"/>
			<point x="45" y="408" type="curve" smooth="yes"/>
			<point x="45" y="163"/>
			<point x="120" y="40"/>
			<point x="271" y="40" type="curve" smooth="yes"/>
			<point x="342" y="40"/>
			<point x="399" y="81"/>
			<point x="429" y="154" type="curve" smooth="yes"/>
			<point x="444" y="189"/>
			<point x="451" y="230"/>
			<point x="451" y="275" type="curve" smooth="yes"/>
			<point x="451" y="315"/>
			<point x="439" y="412"/>
			<point x="428" y="444" type="curve"/>
			<point x="124" y="444" type="line"/>
			<point x="125" y="543"/>
			<point x="157" y="622"/>
			<point x="217" y="666" type="curve" smooth="yes"/>
			<point x="247" y="688"/>
			<point x="285" y="699"/>
			<point x="330" y="699" type="curve" smooth="yes"/>
			<point x="421" y="699"/>
			<point x="477" y="654"/>
			<point x="513" y="567" type="curve" smooth="yes"/>
			<point x="530" y="525"/>
			<point x="543" y="475"/>
			<point x="552" y="418" type="curve" smooth="yes"/>
			<point x="577" y="276"/>
			<point x="615" y="150"/>
			<point x="667" y="41" type="curve" smooth="yes"/>
			<point x="718" y="-66"/>
			<point x="770" y="-119"/>
		</contour>
		<contour>
			<point x="264" y="123" type="curve" smooth="yes"/>
			<point x="173" y="123"/>
			<point x="126" y="203"/>
			<point x="124" y="364" type="curve"/>
			<point x="362" y="364" type="line"/>
			<point x="369" y="346"/>
			<point x="372" y="316"/>
			<point x="372" y="275" type="curve" smooth="yes"/>
			<point x="372" y="186"/>
			<point x="335" y="123"/>
		</contour>
	</outline>
</glyph>
<glyph name="FOI.medi" format="2">
	<advance width="1178" height="1750"/>
	<note>
		u1839_1826.medV1
	</note>
	<outline>
		<contour>
			<point x="152" y="-182" type="curve"/>
			<point x="242" y="-182" type="line"/>
			<point x="217" y="-147"/>
			<point x="204" y="-108"/>
			<point x="204" y="-63" type="curve" smooth="yes"/>
			<point x="204" y="-24"/>
			<point x="211" y="11"/>
			<point x="225" y="41" type="curve"/>
			<point x="280" y="48"/>
			<point x="327" y="80"/>
			<point x="350" y="135" type="curve"/>
			<point x="378" y="72"/>
			<point x="427" y="40"/>
			<point x="492" y="40" type="curve" smooth="yes"/>
			<point x="635" y="40"/>
			<point x="705" y="147"/>
			<point x="706" y="364" type="curve"/>
			<point x="817" y="364" type="line"/>
			<point x="856" y="219"/>
			<point x="913" y="75"/>
			<point x="990" y="-67" type="curve"/>
			<point x="1063" y="-31" type="line"/>
			<point x="990" y="98"/>
			<point x="935" y="229"/>
			<point x="896" y="364" type="curve"/>
			<point x="1208" y="364" type="line"/>
			<point x="1208" y="444" type="line"/>
			<point x="702" y="444" type="line"/>
			<point x="687" y="583"/>
			<point x="626" y="686"/>
			<point x="529" y="741" type="curve" smooth="yes"/>
			<point x="480" y="768"/>
			<point x="424" y="782"/>
			<point x="360" y="782" type="curve" smooth="yes"/>
			<point x="212" y="782"/>
			<point x="101" y="711"/>
			<point x="42" y="588" type="curve" smooth="yes"/>
			<point x="13" y="527"/>
			<point x="-1" y="456"/>
			<point x="-1" y="375" type="curve" smooth="yes"/>
			<point x="-1" y="176"/>
			<point x="49" y="70"/>
			<point x="152" y="45" type="curve"/>
			<point x="132" y="10"/>
			<point x="122" y="-26"/>
			<point x="122" y="-64" type="curve" smooth="yes"/>
			<point x="122" y="-113"/>
			<point x="132" y="-152"/>
		</contour>
		<contour>
			<point x="203" y="123" type="curve" smooth="yes"/>
			<point x="136" y="123"/>
			<point x="100" y="163"/>
			<point x="88" y="239" type="curve" smooth="yes"/>
			<point x="81" y="275"/>
			<point x="78" y="317"/>
			<point x="78" y="364" type="curve"/>
			<point x="313" y="364" type="line"/>
			<point x="313" y="286" type="line" smooth="yes"/>
			<point x="313" y="190"/>
			<point x="275" y="123"/>
		</contour>
		<contour>
			<point x="492" y="123" type="curve" smooth="yes"/>
			<point x="425" y="123"/>
			<point x="392" y="177"/>
			<point x="392" y="286" type="curve" smooth="yes"/>
			<point x="392" y="364" type="line"/>
			<point x="627" y="364" type="line"/>
			<point x="624" y="244"/>
			<point x="609" y="178"/>
			<point x="571" y="147" type="curve" smooth="yes"/>
			<point x="552" y="131"/>
			<point x="525" y="123"/>
		</contour>
		<contour>
			<point x="622" y="444" type="curve"/>
			<point x="81" y="444" type="line"/>
			<point x="101" y="609"/>
			<point x="192" y="699"/>
			<point x="359" y="699" type="curve" smooth="yes"/>
			<point x="459" y="699"/>
			<point x="533" y="656"/>
			<point x="579" y="578" type="curve" smooth="yes"/>
			<point x="601" y="539"/>
			<point x="615" y="495"/>
		</contour>
	</outline>
</glyph>
<glyph name="K2A.fina" format="2">
	<advance width="976" height="1750"/>
	<note>
		u183A_1820.fin
	</note>
	<outline>
		<contour>
			<point x="670" y="-264" type="curve"/>
			<point x="752" y="-264" type="line"/>
			<point x="738" y="-238"/>
			<point x="731" y="-212"/>
			<point x="731" y="-187" type="curve" smooth="yes"/>
			<point x="731" y="-130"/>
			<point x="749" y="-95"/>
			<point x="798" y="-31" type="curve" smooth="yes"/>
			<point x="883" y="77"/>
			<point x="931" y="162"/>
			<point x="931" y="245" type="curve" smooth="yes"/>
			<point x="931" y="374"/>
			<point x="852" y="444"/>
			<point x="700" y="444" type="curve" smooth="yes"/>
			<point x="458" y="444" type="line"/>
			<point x="444" y="565"/>
			<point x="408" y="648"/>
			<point x="351" y="692" type="curve" smooth="yes"/>
			<point x="320" y="715"/>
			<point x="279" y="727"/>
			<point x="229" y="727" type="curve" smooth="yes"/>
			<point x="130" y="727"/>
			<point x="61" y="672"/>
			<point x="26" y="577" type="curve" smooth="yes"/>
			<point x="9" y="530"/>
			<point x="0" y="478"/>
			<point x="0" y="419" type="curve" smooth="yes"/>
			<point x="0" y="96" type="line"/>
			<point x="66" y="96" type="line"/>
			<point x="74" y="215" type="line"/>
			<point x="101" y="158"/>
			<point x="142" y="98"/>
			<point x="199" y="35" type="curve"/>
			<point x="261" y="90" type="line"/>
			<point x="137" y="223"/>
			<point x="79" y="330"/>
			<point x="79" y="419" type="curve" smooth="yes"/>
			<point x="79" y="511"/>
			<point x="100" y="576"/>
			<point x="142" y="614" type="curve" smooth="yes"/>
			<point x="164" y="634"/>
			<point x="193" y="644"/>
			<point x="229" y="644" type="curve" smooth="yes"/>
			<point x="306" y="644"/>
			<point x="346" y="600"/>
			<point x="366" y="512" type="curve" smooth="yes"/>
			<point x="375" y="470"/>
			<point x="381" y="421"/>
			<point x="385" y="364" type="curve" smooth="yes"/>
			<point x="404" y="96" type="line"/>
			<point x="470" y="96" type="line"/>
			<point x="489" y="364" type="line"/>
			<point x="699" y="364" type="line" smooth="yes"/>
			<point x="806" y="364"/>
			<point x="853" y="326"/>
			<point x="853" y="243" type="curve" smooth="yes"/>
			<point x="853" y="180"/>
			<point x="822" y="127"/>
			<point x="746" y="28" type="curve" smooth="yes"/>
			<point x="683" y="-55"/>
			<point x="651" y="-115"/>
			<point x="651" y="-187" type="curve" smooth="yes"/>
			<point x="651" y="-217"/>
			<point x="657" y="-243"/>
		</contour>
	</outline>
</glyph>
<glyph name="K2A.isol" format="2">
	<advance width="1021" height="1750"/>
	<note>
		u183A_1820
	</note>
	<outline>
		<contour>
			<point x="715" y="-264" type="curve"/>
			<point x="797" y="-264" type="line"/>
			<point x="783" y="-238"/>
			<point x="776" y="-212"/>
			<point x="776" y="-187" type="curve" smooth="yes"/>
			<point x="776" y="-130"/>
			<point x="794" y="-95"/>
			<point x="843" y="-31" type="curve" smooth="yes"/>
			<point x="928" y="77"/>
			<point x="976" y="162"/>
			<point x="976" y="245" type="curve" smooth="yes"/>
			<point x="976" y="374"/>
			<point x="897" y="444"/>
			<point x="745" y="444" type="curve" smooth="yes"/>
			<point x="503" y="444" type="line"/>
			<point x="489" y="565"/>
			<point x="453" y="648"/>
			<point x="396" y="692" type="curve" smooth="yes"/>
			<point x="365" y="715"/>
			<point x="324" y="727"/>
			<point x="274" y="727" type="curve" smooth="yes"/>
			<point x="175" y="727"/>
			<point x="106" y="672"/>
			<point x="71" y="577" type="curve" smooth="yes"/>
			<point x="54" y="530"/>
			<point x="45" y="478"/>
			<point x="45" y="419" type="curve" smooth="yes"/>
			<point x="45" y="96" type="line"/>
			<point x="111" y="96" type="line"/>
			<point x="119" y="215" type="line"/>
			<point x="146" y="158"/>
			<point x="187" y="98"/>
			<point x="244" y="35" type="curve"/>
			<point x="306" y="90" type="line"/>
			<point x="182" y="223"/>
			<point x="124" y="330"/>
			<point x="124" y="419" type="curve" smooth="yes"/>
			<point x="124" y="511"/>
			<point x="145" y="576"/>
			<point x="187" y="614" type="curve" smooth="yes"/>
			<point x="209" y="634"/>
			<point x="238" y="644"/>
			<point x="274" y="644" type="curve" smooth="yes"/>
			<point x="351" y="644"/>
			<point x="391" y="600"/>
			<point x="411" y="512" type="curve" smooth="yes"/>
			<point x="420" y="470"/>
			<point x="426" y="421"/>
			<point x="430" y="364" type="curve" smooth="yes"/>
			<point x="449" y="96" type="line"/>
			<point x="515" y="96" type="line"/>
			<point x="534" y="364" type="line"/>
			<point x="744" y="364" type="line" smooth="yes"/>
			<point x="851" y="364"/>
			<point x="898" y="326"/>
			<point x="898" y="243" type="curve" smooth="yes"/>
			<point x="898" y="180"/>
			<point x="867" y="127"/>
			<point x="791" y="28" type="curve" smooth="yes"/>
			<point x="728" y="-55"/>
			<point x="696" y="-115"/>
			<point x="696" y="-187" type="curve" smooth="yes"/>
			<point x="696" y="-217"/>
			<point x="702" y="-243"/>
		</contour>
	</outline>
</glyph>
<glyph name="K2A.medi" format="2">
	<advance width="669" height="1750"/>
	<note>
		u183A_1820.med
	</note>
	<outline>
		<contour>
			<point x="199" y="35" type="curve"/>
			<point x="261" y="90" type="line"/>
			<point x="137" y="223"/>
			<point x="79" y="330"/>
			<point x="79" y="419" type="curve" smooth="yes"/>
			<point x="79" y="511"/>
			<point x="100" y="576"/>
			<point x="142" y="614" type="curve" smooth="yes"/>
			<point x="164" y="634"/>
			<point x="193" y="644"/>
			<point x="229" y="644" type="curve" smooth="yes"/>
			<point x="306" y="644"/>
			<point x="346" y="600"/>
			<point x="366" y="512" type="curve" smooth="yes"/>
			<point x="375" y="470"/>
			<point x="381" y="421"/>
			<point x="385" y="364" type="curve" smooth="yes"/>
			<point x="404" y="96" type="line"/>
			<point x="470" y="96" type="line"/>
			<point x="489" y="364" type="line"/>
			<point x="699" y="364" type="line"/>
			<point x="699" y="444" type="line"/>
			<point x="458" y="444" type="line"/>
			<point x="444" y="565"/>
			<point x="408" y="648"/>
			<point x="351" y="692" type="curve" smooth="yes"/>
			<point x="320" y="715"/>
			<point x="279" y="727"/>
			<point x="229" y="727" type="curve" smooth="yes"/>
			<point x="130" y="727"/>
			<point x="61" y="672"/>
			<point x="26" y="577" type="curve" smooth="yes"/>
			<point x="9" y="530"/>
			<point x="0" y="478"/>
			<point x="0" y="419" type="curve" smooth="yes"/>
			<point x="0" y="96" type="line"/>
			<point x="66" y="96" type="line"/>
			<point x="74" y="215" type="line"/>
			<point x="101" y="158"/>
			<point x="142" y="98"/>
		</contour>
	</outline>
</glyph>
<glyph name="K2I.init" format="2">
	<advance width="810" height="1750"/>
	<note>
		u183A_1822.ini
	</note>
	<outline>
		<contour>
			<point x="622" y="-67" type="curve"/>
			<point x="695" y="-31" type="line"/>
			<point x="613" y="98"/>
			<point x="559" y="230"/>
			<point x="533" y="364" type="curve"/>
			<point x="840" y="364" type="line"/>
			<point x="840" y="444" type="line"/>
			<point x="523" y="444" type="line"/>
			<point x="507" y="579"/>
			<point x="471" y="671"/>
			<point x="414" y="720" type="curve" smooth="yes"/>
			<point x="382" y="747"/>
			<point x="340" y="760"/>
			<point x="287" y="760" type="curve" smooth="yes"/>
			<point x="182" y="760"/>
			<point x="108" y="698"/>
			<point x="72" y="591" type="curve" smooth="yes"/>
			<point x="54" y="540"/>
			<point x="45" y="482"/>
			<point x="45" y="419" type="curve" smooth="yes"/>
			<point x="45" y="96" type="line"/>
			<point x="111" y="96" type="line"/>
			<point x="119" y="215" type="line"/>
			<point x="146" y="158"/>
			<point x="187" y="98"/>
			<point x="244" y="35" type="curve"/>
			<point x="306" y="90" type="line"/>
			<point x="182" y="223"/>
			<point x="124" y="330"/>
			<point x="124" y="419" type="curve" smooth="yes"/>
			<point x="124" y="516"/>
			<point x="146" y="596"/>
			<point x="193" y="642" type="curve" smooth="yes"/>
			<point x="217" y="665"/>
			<point x="248" y="677"/>
			<point x="287" y="677" type="curve" smooth="yes"/>
			<point x="360" y="677"/>
			<point x="400" y="636"/>
			<point x="422" y="555" type="curve" smooth="yes"/>
			<point x="432" y="516"/>
			<point x="440" y="471"/>
			<point x="447" y="418" type="curve" smooth="yes"/>
			<point x="468" y="254"/>
			<point x="530" y="85"/>
		</contour>
	</outline>
</glyph>
<glyph name="K2O.isol" format="2">
	<advance width="749" height="1750"/>
	<note>
		u183A_1824
	</note>
	<outline>
		<contour>
			<point x="224" y="35" type="curve"/>
			<point x="286" y="80" type="line"/>
			<point x="219" y="164"/>
			<point x="172" y="239"/>
			<point x="146" y="306" type="curve" smooth="yes"/>
			<point x="131" y="343"/>
			<point x="124" y="381"/>
			<point x="124" y="419" type="curve" smooth="yes"/>
			<point x="124" y="578"/>
			<point x="216" y="677"/>
			<point x="365" y="677" type="curve" smooth="yes"/>
			<point x="503" y="677"/>
			<point x="586" y="599"/>
			<point x="614" y="444" type="curve"/>
			<point x="367" y="444" type="line"/>
			<point x="343" y="399"/>
			<point x="329" y="331"/>
			<point x="329" y="275" type="curve" smooth="yes"/>
			<point x="329" y="130"/>
			<point x="394" y="40"/>
			<point x="519" y="40" type="curve" smooth="yes"/>
			<point x="591" y="40"/>
			<point x="649" y="87"/>
			<point x="681" y="167" type="curve" smooth="yes"/>
			<point x="696" y="206"/>
			<point x="704" y="252"/>
			<point x="704" y="303" type="curve" smooth="yes"/>
			<point x="704" y="440"/>
			<point x="678" y="549"/>
			<point x="625" y="628" type="curve" smooth="yes"/>
			<point x="567" y="716"/>
			<point x="480" y="760"/>
			<point x="365" y="760" type="curve" smooth="yes"/>
			<point x="237" y="760"/>
			<point x="137" y="700"/>
			<point x="85" y="595" type="curve" smooth="yes"/>
			<point x="58" y="542"/>
			<point x="45" y="480"/>
			<point x="45" y="408" type="curve" smooth="yes"/>
			<point x="45" y="76" type="line"/>
			<point x="111" y="76" type="line"/>
			<point x="119" y="192" type="line"/>
			<point x="142" y="148"/>
			<point x="177" y="96"/>
		</contour>
		<contour>
			<point x="512" y="123" type="curve" smooth="yes"/>
			<point x="443" y="123"/>
			<point x="408" y="174"/>
			<point x="408" y="275" type="curve" smooth="yes"/>
			<point x="408" y="310"/>
			<point x="413" y="339"/>
			<point x="424" y="364" type="curve"/>
			<point x="623" y="364" type="line"/>
			<point x="624" y="354"/>
			<point x="625" y="344"/>
			<point x="625" y="334" type="curve" smooth="yes"/>
			<point x="625" y="303" type="line" smooth="yes"/>
			<point x="625" y="186"/>
			<point x="581" y="123"/>
		</contour>
	</outline>
</glyph>
<glyph name="K2O.medi" format="2">
	<advance width="840" height="1750"/>
	<note>
		u183A_1823.med
	</note>
	<outline>
		<contour>
			<point x="179" y="35" type="curve"/>
			<point x="241" y="80" type="line"/>
			<point x="176" y="164"/>
			<point x="129" y="233"/>
			<point x="102" y="304" type="curve" smooth="yes"/>
			<point x="87" y="342"/>
			<point x="79" y="380"/>
			<point x="79" y="419" type="curve" smooth="yes"/>
			<point x="79" y="578"/>
			<point x="171" y="677"/>
			<point x="320" y="677" type="curve" smooth="yes"/>
			<point x="458" y="677"/>
			<point x="541" y="599"/>
			<point x="569" y="444" type="curve"/>
			<point x="322" y="444" type="line"/>
			<point x="298" y="399"/>
			<point x="284" y="332"/>
			<point x="284" y="275" type="curve" smooth="yes"/>
			<point x="284" y="130"/>
			<point x="349" y="40"/>
			<point x="474" y="40" type="curve" smooth="yes"/>
			<point x="545" y="40"/>
			<point x="603" y="86"/>
			<point x="635" y="166" type="curve" smooth="yes"/>
			<point x="651" y="205"/>
			<point x="659" y="251"/>
			<point x="659" y="303" type="curve" smooth="yes"/>
			<point x="659" y="334" type="line" smooth="yes"/>
			<point x="659" y="344"/>
			<point x="658" y="354"/>
			<point x="657" y="364" type="curve"/>
			<point x="870" y="364" type="line"/>
			<point x="870" y="444" type="line"/>
			<point x="648" y="444" type="line"/>
			<point x="613" y="649"/>
			<point x="500" y="760"/>
			<point x="320" y="760" type="curve" smooth="yes"/>
			<point x="191" y="760"/>
			<point x="91" y="702"/>
			<point x="39" y="595" type="curve" smooth="yes"/>
			<point x="13" y="542"/>
			<point x="0" y="480"/>
			<point x="0" y="408" type="curve" smooth="yes"/>
			<point x="0" y="76" type="line"/>
			<point x="66" y="76" type="line"/>
			<point x="74" y="192" type="line"/>
			<point x="97" y="148"/>
			<point x="132" y="96"/>
		</contour>
		<contour>
			<point x="467" y="123" type="curve" smooth="yes"/>
			<point x="398" y="123"/>
			<point x="363" y="174"/>
			<point x="363" y="275" type="curve" smooth="yes"/>
			<point x="363" y="310"/>
			<point x="368" y="339"/>
			<point x="379" y="364" type="curve"/>
			<point x="578" y="364" type="line"/>
			<point x="579" y="354"/>
			<point x="580" y="344"/>
			<point x="580" y="334" type="curve" smooth="yes"/>
			<point x="580" y="303" type="line" smooth="yes"/>
			<point x="580" y="186"/>
			<point x="536" y="123"/>
		</contour>
	</outline>
</glyph>
<glyph name="K2W.init" format="2">
	<advance width="885" height="1750"/>
	<note>
		u183A_1827.ini
	</note>
	<outline>
		<contour>
			<point x="737" y="-119" type="curve" smooth="yes"/>
			<point x="776" y="-119"/>
			<point x="804" y="-108"/>
			<point x="819" y="-85" type="curve"/>
			<point x="819" y="6" type="line"/>
			<point x="801" y="-22"/>
			<point x="774" y="-36"/>
			<point x="737" y="-36" type="curve" smooth="yes"/>
			<point x="702" y="-36"/>
			<point x="669" y="-11"/>
			<point x="639" y="41" type="curve" smooth="yes"/>
			<point x="625" y="64"/>
			<point x="612" y="89"/>
			<point x="599" y="117" type="curve" smooth="yes"/>
			<point x="564" y="193"/>
			<point x="541" y="275"/>
			<point x="530" y="364" type="curve"/>
			<point x="915" y="364" type="line"/>
			<point x="915" y="444" type="line"/>
			<point x="521" y="444" type="line"/>
			<point x="505" y="575"/>
			<point x="473" y="667"/>
			<point x="413" y="719" type="curve" smooth="yes"/>
			<point x="381" y="746"/>
			<point x="339" y="760"/>
			<point x="287" y="760" type="curve" smooth="yes"/>
			<point x="182" y="760"/>
			<point x="108" y="698"/>
			<point x="72" y="591" type="curve" smooth="yes"/>
			<point x="54" y="540"/>
			<point x="45" y="482"/>
			<point x="45" y="419" type="curve" smooth="yes"/>
			<point x="45" y="96" type="line"/>
			<point x="111" y="96" type="line"/>
			<point x="119" y="215" type="line"/>
			<point x="146" y="158"/>
			<point x="187" y="98"/>
			<point x="244" y="35" type="curve"/>
			<point x="306" y="90" type="line"/>
			<point x="182" y="223"/>
			<point x="124" y="330"/>
			<point x="124" y="419" type="curve" smooth="yes"/>
			<point x="124" y="516"/>
			<point x="146" y="596"/>
			<point x="193" y="642" type="curve" smooth="yes"/>
			<point x="217" y="665"/>
			<point x="248" y="677"/>
			<point x="287" y="677" type="curve" smooth="yes"/>
			<point x="359" y="677"/>
			<point x="398" y="635"/>
			<point x="421" y="553" type="curve" smooth="yes"/>
			<point x="432" y="514"/>
			<point x="440" y="469"/>
			<point x="445" y="418" type="curve" smooth="yes"/>
			<point x="460" y="280"/>
			<point x="494" y="154"/>
			<point x="547" y="41" type="curve" smooth="yes"/>
			<point x="598" y="-67"/>
			<point x="649" y="-119"/>
		</contour>
	</outline>
</glyph>
<glyph name="KA.fina" format="2">
	<advance width="973" height="1750"/>
	<note>
		u183B_1820.fin
	</note>
	<outline>
		<contour>
			<point x="667" y="-264" type="curve"/>
			<point x="749" y="-264" type="line"/>
			<point x="735" y="-238"/>
			<point x="728" y="-212"/>
			<point x="728" y="-187" type="curve" smooth="yes"/>
			<point x="728" y="-130"/>
			<point x="747" y="-90"/>
			<point x="795" y="-31" type="curve" smooth="yes"/>
			<point x="880" y="78"/>
			<point x="928" y="162"/>
			<point x="928" y="245" type="curve" smooth="yes"/>
			<point x="928" y="374"/>
			<point x="849" y="444"/>
			<point x="697" y="444" type="curve" smooth="yes"/>
			<point x="455" y="444" type="line"/>
			<point x="441" y="565"/>
			<point x="405" y="648"/>
			<point x="348" y="692" type="curve" smooth="yes"/>
			<point x="317" y="715"/>
			<point x="276" y="727"/>
			<point x="226" y="727" type="curve" smooth="yes"/>
			<point x="134" y="727"/>
			<point x="64" y="674"/>
			<point x="26" y="582" type="curve" smooth="yes"/>
			<point x="7" y="535"/>
			<point x="-3" y="480"/>
			<point x="-3" y="417" type="curve" smooth="yes"/>
			<point x="-3" y="299"/>
			<point x="40" y="174"/>
			<point x="126" y="42" type="curve"/>
			<point x="197" y="85" type="line"/>
			<point x="129" y="185"/>
			<point x="87" y="269"/>
			<point x="78" y="364" type="curve"/>
			<point x="237" y="364" type="line"/>
			<point x="237" y="444" type="line"/>
			<point x="76" y="444" type="line"/>
			<point x="83" y="576"/>
			<point x="138" y="644"/>
			<point x="226" y="644" type="curve" smooth="yes"/>
			<point x="303" y="644"/>
			<point x="343" y="599"/>
			<point x="363" y="511" type="curve" smooth="yes"/>
			<point x="372" y="469"/>
			<point x="378" y="420"/>
			<point x="382" y="363" type="curve" smooth="yes"/>
			<point x="401" y="96" type="line"/>
			<point x="467" y="96" type="line"/>
			<point x="486" y="364" type="line"/>
			<point x="696" y="364" type="line" smooth="yes"/>
			<point x="803" y="364"/>
			<point x="850" y="326"/>
			<point x="850" y="243" type="curve" smooth="yes"/>
			<point x="850" y="180"/>
			<point x="819" y="127"/>
			<point x="743" y="28" type="curve" smooth="yes"/>
			<point x="680" y="-55"/>
			<point x="648" y="-115"/>
			<point x="648" y="-187" type="curve" smooth="yes"/>
			<point x="648" y="-217"/>
			<point x="654" y="-243"/>
		</contour>
	</outline>
</glyph>
<glyph name="KA.init" format="2">
	<advance width="714" height="1750"/>
	<note>
		u183B_1820.ini
	</note>
	<outline>
		<contour>
			<point x="174" y="42" type="curve"/>
			<point x="245" y="85" type="line"/>
			<point x="177" y="185"/>
			<point x="135" y="269"/>
			<point x="126" y="364" type="curve"/>
			<point x="285" y="364" type="line"/>
			<point x="285" y="444" type="line"/>
			<point x="124" y="444" type="line"/>
			<point x="131" y="576"/>
			<point x="186" y="644"/>
			<point x="274" y="644" type="curve" smooth="yes"/>
			<point x="351" y="644"/>
			<point x="391" y="598"/>
			<point x="411" y="509" type="curve" smooth="yes"/>
			<point x="420" y="466"/>
			<point x="426" y="417"/>
			<point x="430" y="360" type="curve" smooth="yes"/>
			<point x="449" y="96" type="line"/>
			<point x="515" y="96" type="line"/>
			<point x="534" y="364" type="line"/>
			<point x="744" y="364" type="line"/>
			<point x="744" y="444" type="line"/>
			<point x="503" y="444" type="line"/>
			<point x="489" y="565"/>
			<point x="453" y="648"/>
			<point x="396" y="692" type="curve" smooth="yes"/>
			<point x="365" y="715"/>
			<point x="324" y="727"/>
			<point x="274" y="727" type="curve" smooth="yes"/>
			<point x="183" y="727"/>
			<point x="112" y="675"/>
			<point x="74" y="583" type="curve" smooth="yes"/>
			<point x="55" y="536"/>
			<point x="45" y="481"/>
			<point x="45" y="417" type="curve" smooth="yes"/>
			<point x="45" y="299"/>
			<point x="88" y="174"/>
		</contour>
	</outline>
</glyph>
<glyph name="KA.medi" format="2">
	<advance width="666" height="1750"/>
	<note>
		u183B_1820.med
	</note>
	<outline>
		<contour>
			<point x="126" y="42" type="curve"/>
			<point x="197" y="85" type="line"/>
			<point x="129" y="185"/>
			<point x="87" y="269"/>
			<point x="78" y="364" type="curve"/>
			<point x="237" y="364" type="line"/>
			<point x="237" y="444" type="line"/>
			<point x="76" y="444" type="line"/>
			<point x="83" y="576"/>
			<point x="138" y="644"/>
			<point x="226" y="644" type="curve" smooth="yes"/>
			<point x="303" y="644"/>
			<point x="343" y="598"/>
			<point x="363" y="509" type="curve" smooth="yes"/>
			<point x="372" y="466"/>
			<point x="378" y="417"/>
			<point x="382" y="360" type="curve" smooth="yes"/>
			<point x="401" y="96" type="line"/>
			<point x="467" y="96" type="line"/>
			<point x="486" y="364" type="line"/>
			<point x="696" y="364" type="line"/>
			<point x="696" y="444" type="line"/>
			<point x="455" y="444" type="line"/>
			<point x="441" y="565"/>
			<point x="405" y="648"/>
			<point x="348" y="692" type="curve" smooth="yes"/>
			<point x="317" y="715"/>
			<point x="276" y="727"/>
			<point x="226" y="727" type="curve" smooth="yes"/>
			<point x="135" y="727"/>
			<point x="64" y="675"/>
			<point x="26" y="583" type="curve" smooth="yes"/>
			<point x="7" y="536"/>
			<point x="-3" y="481"/>
			<point x="-3" y="417" type="curve" smooth="yes"/>
			<point x="-3" y="299"/>
			<point x="40" y="174"/>
		</contour>
	</outline>
</glyph>
<glyph name="KI.isol" format="2">
	<advance width="1060" height="1750"/>
	<note>
		u183B_1888
	</note>
	<outline>
		<contour>
			<point x="622" y="-67" type="curve"/>
			<point x="695" y="-31" type="line"/>
			<point x="613" y="98"/>
			<point x="559" y="230"/>
			<point x="533" y="364" type="curve"/>
			<point x="840" y="364" type="line" smooth="yes"/>
			<point x="909" y="364"/>
			<point x="938" y="335"/>
			<point x="938" y="279" type="curve" smooth="yes"/>
			<point x="938" y="235"/>
			<point x="931" y="196"/>
			<point x="916" y="162" type="curve"/>
			<point x="990" y="162" type="line"/>
			<point x="1007" y="198"/>
			<point x="1015" y="237"/>
			<point x="1015" y="279" type="curve" smooth="yes"/>
			<point x="1015" y="389"/>
			<point x="957" y="444"/>
			<point x="840" y="444" type="curve" smooth="yes"/>
			<point x="523" y="444" type="line"/>
			<point x="507" y="579"/>
			<point x="471" y="671"/>
			<point x="414" y="720" type="curve" smooth="yes"/>
			<point x="382" y="747"/>
			<point x="340" y="760"/>
			<point x="288" y="760" type="curve" smooth="yes"/>
			<point x="184" y="760"/>
			<point x="109" y="696"/>
			<point x="72" y="590" type="curve" smooth="yes"/>
			<point x="54" y="538"/>
			<point x="45" y="480"/>
			<point x="45" y="417" type="curve" smooth="yes"/>
			<point x="45" y="299"/>
			<point x="88" y="174"/>
			<point x="174" y="42" type="curve"/>
			<point x="245" y="85" type="line"/>
			<point x="177" y="185"/>
			<point x="135" y="269"/>
			<point x="126" y="364" type="curve"/>
			<point x="285" y="364" type="line"/>
			<point x="285" y="444" type="line"/>
			<point x="124" y="444" type="line"/>
			<point x="128" y="533"/>
			<point x="152" y="605"/>
			<point x="197" y="646" type="curve" smooth="yes"/>
			<point x="220" y="667"/>
			<point x="250" y="677"/>
			<point x="287" y="677" type="curve" smooth="yes"/>
			<point x="360" y="677"/>
			<point x="398" y="637"/>
			<point x="421" y="556" type="curve" smooth="yes"/>
			<point x="432" y="517"/>
			<point x="440" y="471"/>
			<point x="447" y="418" type="curve" smooth="yes"/>
			<point x="470" y="251"/>
			<point x="530" y="84"/>
		</contour>
	</outline>
</glyph>
<glyph name="PO.isol" format="2">
	<advance width="764" height="1750"/>
	<note>
		u182B_1825
	</note>
	<outline>
		<contour>
			<point x="505" y="40" type="curve" smooth="yes"/>
			<point x="650" y="40"/>
			<point x="719" y="148"/>
			<point x="719" y="375" type="curve" smooth="yes"/>
			<point x="719" y="538"/>
			<point x="662" y="663"/>
			<point x="558" y="731" type="curve" smooth="yes"/>
			<point x="506" y="765"/>
			<point x="444" y="782"/>
			<point x="372" y="782" type="curve" smooth="yes"/>
			<point x="241" y="782"/>
			<point x="140" y="719"/>
			<point x="86" y="607" type="curve" smooth="yes"/>
			<point x="59" y="551"/>
			<point x="45" y="485"/>
			<point x="45" y="409" type="curve" smooth="yes"/>
			<point x="45" y="364" type="line"/>
			<point x="326" y="364" type="line"/>
			<point x="326" y="275" type="line" smooth="yes"/>
			<point x="326" y="198"/>
			<point x="285" y="153"/>
			<point x="225" y="153" type="curve" smooth="yes"/>
			<point x="149" y="153"/>
			<point x="101" y="147"/>
			<point x="62" y="122" type="curve"/>
			<point x="62" y="42" type="line"/>
			<point x="105" y="67"/>
			<point x="152" y="73"/>
			<point x="225" y="73" type="curve" smooth="yes"/>
			<point x="282" y="73"/>
			<point x="328" y="94"/>
			<point x="363" y="136" type="curve"/>
			<point x="388" y="72"/>
			<point x="436" y="40"/>
		</contour>
		<contour>
			<point x="505" y="123" type="curve" smooth="yes"/>
			<point x="438" y="123"/>
			<point x="405" y="177"/>
			<point x="405" y="286" type="curve" smooth="yes"/>
			<point x="405" y="364" type="line"/>
			<point x="640" y="364" type="line"/>
			<point x="639" y="259"/>
			<point x="626" y="190"/>
			<point x="591" y="153" type="curve" smooth="yes"/>
			<point x="572" y="133"/>
			<point x="543" y="123"/>
		</contour>
		<contour>
			<point x="635" y="444" type="curve"/>
			<point x="124" y="444" type="line"/>
			<point x="127" y="545"/>
			<point x="170" y="623"/>
			<point x="243" y="667" type="curve" smooth="yes"/>
			<point x="280" y="688"/>
			<point x="323" y="699"/>
			<point x="372" y="699" type="curve" smooth="yes"/>
			<point x="471" y="699"/>
			<point x="544" y="656"/>
			<point x="591" y="578" type="curve" smooth="yes"/>
			<point x="614" y="539"/>
			<point x="628" y="495"/>
		</contour>
	</outline>
</glyph>
<glyph name="PUe.fina" format="2">
	<advance width="1104" height="1750"/>
	<note>
		u182B_1825.finV1
	</note>
	<outline>
		<contour>
			<point x="459" y="40" type="curve" smooth="yes"/>
			<point x="602" y="40"/>
			<point x="670" y="144"/>
			<point x="673" y="364" type="curve"/>
			<point x="884" y="364" type="line" smooth="yes"/>
			<point x="953" y="364"/>
			<point x="982" y="335"/>
			<point x="982" y="279" type="curve" smooth="yes"/>
			<point x="982" y="234"/>
			<point x="975" y="195"/>
			<point x="960" y="162" type="curve"/>
			<point x="1034" y="162" type="line"/>
			<point x="1051" y="198"/>
			<point x="1059" y="237"/>
			<point x="1059" y="279" type="curve" smooth="yes"/>
			<point x="1059" y="389"/>
			<point x="1001" y="444"/>
			<point x="884" y="444" type="curve" smooth="yes"/>
			<point x="669" y="444" type="line"/>
			<point x="654" y="583"/>
			<point x="593" y="686"/>
			<point x="496" y="741" type="curve" smooth="yes"/>
			<point x="447" y="768"/>
			<point x="391" y="782"/>
			<point x="326" y="782" type="curve" smooth="yes"/>
			<point x="195" y="782"/>
			<point x="95" y="720"/>
			<point x="40" y="609" type="curve" smooth="yes"/>
			<point x="13" y="554"/>
			<point x="-1" y="488"/>
			<point x="-1" y="412" type="curve" smooth="yes"/>
			<point x="-1" y="364" type="line"/>
			<point x="280" y="364" type="line"/>
			<point x="280" y="275" type="line" smooth="yes"/>
			<point x="280" y="198"/>
			<point x="239" y="153"/>
			<point x="179" y="153" type="curve" smooth="yes"/>
			<point x="103" y="153"/>
			<point x="55" y="147"/>
			<point x="16" y="122" type="curve"/>
			<point x="16" y="42" type="line"/>
			<point x="59" y="67"/>
			<point x="106" y="73"/>
			<point x="179" y="73" type="curve" smooth="yes"/>
			<point x="236" y="73"/>
			<point x="282" y="94"/>
			<point x="317" y="136" type="curve"/>
			<point x="342" y="72"/>
			<point x="390" y="40"/>
		</contour>
		<contour>
			<point x="460" y="123" type="curve" smooth="yes"/>
			<point x="393" y="123"/>
			<point x="359" y="177"/>
			<point x="359" y="286" type="curve" smooth="yes"/>
			<point x="359" y="364" type="line"/>
			<point x="594" y="364" type="line"/>
			<point x="591" y="257"/>
			<point x="579" y="190"/>
			<point x="545" y="153" type="curve" smooth="yes"/>
			<point x="526" y="133"/>
			<point x="498" y="123"/>
		</contour>
		<contour>
			<point x="589" y="444" type="curve"/>
			<point x="78" y="444" type="line"/>
			<point x="81" y="545"/>
			<point x="123" y="623"/>
			<point x="197" y="667" type="curve" smooth="yes"/>
			<point x="234" y="688"/>
			<point x="277" y="699"/>
			<point x="326" y="699" type="curve" smooth="yes"/>
			<point x="425" y="699"/>
			<point x="498" y="656"/>
			<point x="545" y="578" type="curve" smooth="yes"/>
			<point x="568" y="539"/>
			<point x="582" y="495"/>
		</contour>
	</outline>
</glyph>
<glyph name="PUe.isol" format="2">
	<advance width="1150" height="1750"/>
	<note>
		u182B_1826.V1
	</note>
	<outline>
		<contour>
			<point x="505" y="40" type="curve" smooth="yes"/>
			<point x="648" y="40"/>
			<point x="716" y="144"/>
			<point x="719" y="364" type="curve"/>
			<point x="930" y="364" type="line" smooth="yes"/>
			<point x="999" y="364"/>
			<point x="1028" y="335"/>
			<point x="1028" y="279" type="curve" smooth="yes"/>
			<point x="1028" y="234"/>
			<point x="1021" y="195"/>
			<point x="1006" y="162" type="curve"/>
			<point x="1080" y="162" type="line"/>
			<point x="1097" y="198"/>
			<point x="1105" y="237"/>
			<point x="1105" y="279" type="curve" smooth="yes"/>
			<point x="1105" y="389"/>
			<point x="1047" y="444"/>
			<point x="930" y="444" type="curve" smooth="yes"/>
			<point x="715" y="444" type="line"/>
			<point x="700" y="583"/>
			<point x="639" y="686"/>
			<point x="542" y="741" type="curve" smooth="yes"/>
			<point x="493" y="768"/>
			<point x="437" y="782"/>
			<point x="372" y="782" type="curve" smooth="yes"/>
			<point x="241" y="782"/>
			<point x="141" y="720"/>
			<point x="86" y="609" type="curve" smooth="yes"/>
			<point x="59" y="554"/>
			<point x="45" y="488"/>
			<point x="45" y="412" type="curve" smooth="yes"/>
			<point x="45" y="364" type="line"/>
			<point x="326" y="364" type="line"/>
			<point x="326" y="275" type="line" smooth="yes"/>
			<point x="326" y="198"/>
			<point x="285" y="153"/>
			<point x="225" y="153" type="curve" smooth="yes"/>
			<point x="149" y="153"/>
			<point x="101" y="147"/>
			<point x="62" y="122" type="curve"/>
			<point x="62" y="42" type="line"/>
			<point x="105" y="67"/>
			<point x="152" y="73"/>
			<point x="225" y="73" type="curve" smooth="yes"/>
			<point x="282" y="73"/>
			<point x="328" y="94"/>
			<point x="363" y="136" type="curve"/>
			<point x="388" y="72"/>
			<point x="436" y="40"/>
		</contour>
		<contour>
			<point x="506" y="123" type="curve" smooth="yes"/>
			<point x="439" y="123"/>
			<point x="405" y="177"/>
			<point x="405" y="286" type="curve" smooth="yes"/>
			<point x="405" y="364" type="line"/>
			<point x="640" y="364" type="line"/>
			<point x="637" y="257"/>
			<point x="625" y="190"/>
			<point x="591" y="153" type="curve" smooth="yes"/>
			<point x="572" y="133"/>
			<point x="544" y="123"/>
		</contour>
		<contour>
			<point x="635" y="444" type="curve"/>
			<point x="124" y="444" type="line"/>
			<point x="127" y="545"/>
			<point x="169" y="623"/>
			<point x="243" y="667" type="curve" smooth="yes"/>
			<point x="280" y="688"/>
			<point x="323" y="699"/>
			<point x="372" y="699" type="curve" smooth="yes"/>
			<point x="471" y="699"/>
			<point x="544" y="656"/>
			<point x="591" y="578" type="curve" smooth="yes"/>
			<point x="614" y="539"/>
			<point x="628" y="495"/>
		</contour>
	</outline>
</glyph>
<glyph name="a.AA.medi" format="2">
	<advance width="568" height="1750"/>
	<note>
		u1820.medV1
	</note>
	<outline>
		<contour>
			<point x="19" y="96" type="line"/>
			<point x="85" y="96" type="line"/>
			<point x="104" y="364" type="line"/>
			<point x="284" y="364" type="line"/>
			<point x="303" y="96" type="line"/>
			<point x="369" y="96" type="line"/>
			<point x="388" y="364" type="line"/>
			<point x="598" y="364" type="line"/>
			<point x="598" y="444" type="line"/>
			<point x="0" y="444" type="line"/>
			<point x="0" y="364" type="line"/>
		</contour>
	</outline>
</glyph>
<glyph name="b.B.fina" format="2">
	<advance width="747" height="1750"/>
	<note>
		u182A.fin
	</note>
	<outline>
		<contour>
			<point x="397" y="-264" type="curve"/>
			<point x="479" y="-264" type="line"/>
			<point x="465" y="-238"/>
			<point x="458" y="-212"/>
			<point x="458" y="-187" type="curve" smooth="yes"/>
			<point x="458" y="-143"/>
			<point x="468" y="-110"/>
			<point x="492" y="-71" type="curve" smooth="yes"/>
			<point x="503" y="-52"/>
			<point x="518" y="-31"/>
			<point x="536" y="-7" type="curve" smooth="yes"/>
			<point x="611" y="94"/>
			<point x="657" y="171"/>
			<point x="682" y="252" type="curve" smooth="yes"/>
			<point x="695" y="295"/>
			<point x="702" y="340"/>
			<point x="702" y="388" type="curve" smooth="yes"/>
			<point x="702" y="551"/>
			<point x="644" y="671"/>
			<point x="537" y="735" type="curve" smooth="yes"/>
			<point x="484" y="766"/>
			<point x="419" y="782"/>
			<point x="344" y="782" type="curve" smooth="yes"/>
			<point x="197" y="782"/>
			<point x="92" y="721"/>
			<point x="39" y="608" type="curve" smooth="yes"/>
			<point x="12" y="552"/>
			<point x="-1" y="485"/>
			<point x="-1" y="408" type="curve" smooth="yes"/>
			<point x="-1" y="163"/>
			<point x="73" y="40"/>
			<point x="225" y="40" type="curve" smooth="yes"/>
			<point x="293" y="40"/>
			<point x="350" y="81"/>
			<point x="382" y="153" type="curve" smooth="yes"/>
			<point x="397" y="188"/>
			<point x="405" y="229"/>
			<point x="405" y="275" type="curve" smooth="yes"/>
			<point x="405" y="318"/>
			<point x="394" y="411"/>
			<point x="382" y="444" type="curve"/>
			<point x="78" y="444" type="line"/>
			<point x="82" y="605"/>
			<point x="181" y="699"/>
			<point x="344" y="699" type="curve" smooth="yes"/>
			<point x="521" y="699"/>
			<point x="623" y="584"/>
			<point x="623" y="388" type="curve" smooth="yes"/>
			<point x="623" y="304"/>
			<point x="604" y="236"/>
			<point x="562" y="165" type="curve" smooth="yes"/>
			<point x="541" y="130"/>
			<point x="515" y="91"/>
			<point x="484" y="50" type="curve" smooth="yes"/>
			<point x="411" y="-46"/>
			<point x="378" y="-107"/>
			<point x="378" y="-187" type="curve" smooth="yes"/>
			<point x="378" y="-214"/>
			<point x="384" y="-239"/>
		</contour>
		<contour>
			<point x="218" y="123" type="curve" smooth="yes"/>
			<point x="127" y="123"/>
			<point x="81" y="203"/>
			<point x="78" y="364" type="curve"/>
			<point x="316" y="364" type="line"/>
			<point x="323" y="344"/>
			<point x="326" y="314"/>
			<point x="326" y="275" type="curve" smooth="yes"/>
			<point x="326" y="186"/>
			<point x="289" y="123"/>
		</contour>
	</outline>
</glyph>
<glyph name="b.B.isol" format="2">
	<advance width="680" height="1750"/>
	<note>
		u182A
	</note>
	<outline>
		<contour>
			<point x="271" y="40" type="curve" smooth="yes"/>
			<point x="340" y="40"/>
			<point x="397" y="81"/>
			<point x="428" y="153" type="curve" smooth="yes"/>
			<point x="443" y="188"/>
			<point x="451" y="229"/>
			<point x="451" y="275" type="curve" smooth="yes"/>
			<point x="451" y="318"/>
			<point x="440" y="411"/>
			<point x="428" y="444" type="curve"/>
			<point x="124" y="444" type="line"/>
			<point x="127" y="544"/>
			<point x="160" y="622"/>
			<point x="220" y="666" type="curve" smooth="yes"/>
			<point x="251" y="688"/>
			<point x="289" y="699"/>
			<point x="335" y="699" type="curve" smooth="yes"/>
			<point x="424" y="699"/>
			<point x="487" y="647"/>
			<point x="523" y="557" type="curve" smooth="yes"/>
			<point x="540" y="513"/>
			<point x="551" y="464"/>
			<point x="555" y="409" type="curve"/>
			<point x="635" y="419" type="line"/>
			<point x="628" y="518"/>
			<point x="598" y="607"/>
			<point x="547" y="675" type="curve" smooth="yes"/>
			<point x="493" y="746"/>
			<point x="422" y="782"/>
			<point x="335" y="782" type="curve" smooth="yes"/>
			<point x="208" y="782"/>
			<point x="121" y="716"/>
			<point x="77" y="601" type="curve" smooth="yes"/>
			<point x="56" y="544"/>
			<point x="45" y="480"/>
			<point x="45" y="408" type="curve" smooth="yes"/>
			<point x="45" y="163"/>
			<point x="119" y="40"/>
		</contour>
		<contour>
			<point x="264" y="123" type="curve" smooth="yes"/>
			<point x="173" y="123"/>
			<point x="127" y="203"/>
			<point x="124" y="364" type="curve"/>
			<point x="362" y="364" type="line"/>
			<point x="369" y="344"/>
			<point x="372" y="314"/>
			<point x="372" y="275" type="curve" smooth="yes"/>
			<point x="372" y="186"/>
			<point x="335" y="123"/>
		</contour>
	</outline>
</glyph>
<glyph name="b.B.medi" format="2">
	<advance width="511" height="1750"/>
	<note>
		u182A.med
	</note>
	<outline>
		<contour>
			<point x="227" y="40" type="curve" smooth="yes"/>
			<point x="296" y="40"/>
			<point x="351" y="81"/>
			<point x="382" y="154" type="curve" smooth="yes"/>
			<point x="397" y="189"/>
			<point x="405" y="230"/>
			<point x="405" y="275" type="curve" smooth="yes"/>
			<point x="405" y="315"/>
			<point x="393" y="412"/>
			<point x="382" y="444" type="curve"/>
			<point x="78" y="444" type="line"/>
			<point x="79" y="543"/>
			<point x="113" y="621"/>
			<point x="174" y="666" type="curve" smooth="yes"/>
			<point x="205" y="688"/>
			<point x="244" y="699"/>
			<point x="289" y="699" type="curve" smooth="yes"/>
			<point x="422" y="699"/>
			<point x="506" y="575"/>
			<point x="511" y="364" type="curve"/>
			<point x="585" y="364" type="line"/>
			<point x="585" y="476"/>
			<point x="559" y="580"/>
			<point x="511" y="657" type="curve" smooth="yes"/>
			<point x="457" y="740"/>
			<point x="383" y="782"/>
			<point x="289" y="782" type="curve" smooth="yes"/>
			<point x="162" y="782"/>
			<point x="75" y="716"/>
			<point x="31" y="601" type="curve" smooth="yes"/>
			<point x="10" y="544"/>
			<point x="-1" y="480"/>
			<point x="-1" y="408" type="curve" smooth="yes"/>
			<point x="-1" y="161"/>
			<point x="74" y="40"/>
		</contour>
		<contour>
			<point x="218" y="123" type="curve" smooth="yes"/>
			<point x="127" y="123"/>
			<point x="80" y="203"/>
			<point x="78" y="364" type="curve"/>
			<point x="316" y="364" type="line"/>
			<point x="323" y="346"/>
			<point x="326" y="316"/>
			<point x="326" y="275" type="curve" smooth="yes"/>
			<point x="326" y="186"/>
			<point x="289" y="123"/>
		</contour>
	</outline>
</glyph>
<glyph name="ch.Ch.fina" format="2">
	<advance width="780" height="1750"/>
	<note>
		u1834.fin
	</note>
	<outline>
		<contour>
			<point x="0" y="101" type="curve"/>
			<point x="0" y="16" type="line"/>
			<point x="63" y="55"/>
			<point x="126" y="63"/>
			<point x="235" y="63" type="curve" smooth="yes"/>
			<point x="356" y="63" type="line"/>
			<point x="356" y="129" type="line"/>
			<point x="328" y="212"/>
			<point x="315" y="283"/>
			<point x="315" y="364" type="curve"/>
			<point x="560" y="364" type="line" smooth="yes"/>
			<point x="629" y="364"/>
			<point x="658" y="335"/>
			<point x="658" y="279" type="curve" smooth="yes"/>
			<point x="658" y="235"/>
			<point x="651" y="196"/>
			<point x="636" y="162" type="curve"/>
			<point x="710" y="162" type="line"/>
			<point x="727" y="196"/>
			<point x="735" y="235"/>
			<point x="735" y="279" type="curve" smooth="yes"/>
			<point x="735" y="389"/>
			<point x="677" y="444"/>
			<point x="560" y="444" type="curve" smooth="yes"/>
			<point x="0" y="444" type="line"/>
			<point x="0" y="364" type="line"/>
			<point x="241" y="364" type="line"/>
			<point x="241" y="280"/>
			<point x="251" y="206"/>
			<point x="271" y="143" type="curve"/>
			<point x="235" y="143" type="line" smooth="yes"/>
			<point x="120" y="143"/>
			<point x="56" y="137"/>
		</contour>
	</outline>
</glyph>
<glyph name="cr.Cr.fina" format="2">
	<advance width="1032" height="1750"/>
	<note>
		u1842.fin
	</note>
	<outline>
		<contour>
			<point x="197" y="40" type="curve" smooth="yes"/>
			<point x="322" y="40"/>
			<point x="395" y="121"/>
			<point x="395" y="249" type="curve" smooth="yes"/>
			<point x="395" y="294"/>
			<point x="388" y="332"/>
			<point x="373" y="364" type="curve"/>
			<point x="504" y="364" type="line"/>
			<point x="491" y="330"/>
			<point x="484" y="292"/>
			<point x="484" y="249" type="curve" smooth="yes"/>
			<point x="484" y="116"/>
			<point x="553" y="40"/>
			<point x="681" y="40" type="curve" smooth="yes"/>
			<point x="806" y="40"/>
			<point x="879" y="121"/>
			<point x="879" y="249" type="curve" smooth="yes"/>
			<point x="879" y="296"/>
			<point x="872" y="334"/>
			<point x="857" y="364" type="curve"/>
			<point x="987" y="364" type="line"/>
			<point x="987" y="444" type="line"/>
			<point x="0" y="444" type="line"/>
			<point x="0" y="364" type="line"/>
			<point x="20" y="364" type="line"/>
			<point x="7" y="332"/>
			<point x="0" y="294"/>
			<point x="0" y="249" type="curve" smooth="yes"/>
			<point x="0" y="116"/>
			<point x="69" y="40"/>
		</contour>
		<contour>
			<point x="197" y="123" type="curve" smooth="yes"/>
			<point x="118" y="123"/>
			<point x="79" y="166"/>
			<point x="79" y="251" type="curve" smooth="yes"/>
			<point x="79" y="294"/>
			<point x="86" y="332"/>
			<point x="99" y="364" type="curve"/>
			<point x="296" y="364" type="line"/>
			<point x="309" y="332"/>
			<point x="316" y="294"/>
			<point x="316" y="251" type="curve" smooth="yes"/>
			<point x="316" y="167"/>
			<point x="273" y="123"/>
		</contour>
		<contour>
			<point x="681" y="123" type="curve" smooth="yes"/>
			<point x="602" y="123"/>
			<point x="563" y="166"/>
			<point x="563" y="251" type="curve" smooth="yes"/>
			<point x="563" y="294"/>
			<point x="570" y="332"/>
			<point x="583" y="364" type="curve"/>
			<point x="780" y="364" type="line"/>
			<point x="793" y="332"/>
			<point x="800" y="294"/>
			<point x="800" y="251" type="curve" smooth="yes"/>
			<point x="800" y="167"/>
			<point x="756" y="123"/>
		</contour>
	</outline>
</glyph>
<glyph name="d.D.init._isol" format="2">
	<advance width="748" height="1750"/>
	<note>
		u1833
	</note>
	<outline>
		<contour>
			<point x="379" y="-157" type="curve" smooth="yes"/>
			<point x="480" y="-157"/>
			<point x="551" y="-84"/>
			<point x="551" y="27" type="curve" smooth="yes"/>
			<point x="551" y="154"/>
			<point x="474" y="232"/>
			<point x="350" y="232" type="curve" smooth="yes"/>
			<point x="290" y="232"/>
			<point x="235" y="202"/>
			<point x="202" y="154" type="curve"/>
			<point x="177" y="225"/>
			<point x="156" y="295"/>
			<point x="139" y="364" type="curve"/>
			<point x="703" y="364" type="line"/>
			<point x="703" y="444" type="line"/>
			<point x="45" y="444" type="line"/>
			<point x="63" y="338"/>
			<point x="91" y="234"/>
			<point x="128" y="131" type="curve" smooth="yes"/>
			<point x="173" y="7"/>
			<point x="214" y="-72"/>
			<point x="270" y="-119" type="curve" smooth="yes"/>
			<point x="300" y="-144"/>
			<point x="336" y="-157"/>
		</contour>
		<contour>
			<point x="379" y="-77" type="curve" smooth="yes"/>
			<point x="322" y="-77"/>
			<point x="276" y="-32"/>
			<point x="232" y="76" type="curve"/>
			<point x="255" y="123"/>
			<point x="299" y="153"/>
			<point x="350" y="153" type="curve" smooth="yes"/>
			<point x="430" y="153"/>
			<point x="473" y="106"/>
			<point x="473" y="27" type="curve" smooth="yes"/>
			<point x="473" y="-37"/>
			<point x="436" y="-77"/>
		</contour>
	</outline>
</glyph>
<glyph name="d.T.isol" format="2">
	<advance width="745" height="1750"/>
	<note>
		u1832
	</note>
	<outline>
		<contour>
			<point x="405" y="96" type="line"/>
			<point x="471" y="96" type="line"/>
			<point x="490" y="364" type="line"/>
			<point x="700" y="364" type="line"/>
			<point x="700" y="444" type="line"/>
			<point x="460" y="444" type="line"/>
			<point x="452" y="603"/>
			<point x="422" y="698"/>
			<point x="362" y="743" type="curve" smooth="yes"/>
			<point x="331" y="766"/>
			<point x="292" y="777"/>
			<point x="243" y="777" type="curve" smooth="yes"/>
			<point x="164" y="777"/>
			<point x="102" y="738"/>
			<point x="70" y="673" type="curve" smooth="yes"/>
			<point x="53" y="641"/>
			<point x="45" y="604"/>
			<point x="45" y="563" type="curve" smooth="yes"/>
			<point x="45" y="496"/>
			<point x="62" y="420"/>
			<point x="91" y="364" type="curve"/>
			<point x="386" y="364" type="line"/>
		</contour>
		<contour>
			<point x="380" y="444" type="curve"/>
			<point x="147" y="444" type="line"/>
			<point x="132" y="473"/>
			<point x="124" y="513"/>
			<point x="124" y="563" type="curve" smooth="yes"/>
			<point x="124" y="644"/>
			<point x="170" y="694"/>
			<point x="243" y="694" type="curve" smooth="yes"/>
			<point x="334" y="694"/>
			<point x="375" y="617"/>
		</contour>
	</outline>
</glyph>
<glyph name="f.F.fina" format="2">
	<advance width="747" height="1750"/>
	<note>
		u1839.fin
	</note>
	<outline>
		<contour>
			<point x="397" y="-264" type="curve"/>
			<point x="479" y="-264" type="line"/>
			<point x="465" y="-238"/>
			<point x="458" y="-212"/>
			<point x="458" y="-187" type="curve" smooth="yes"/>
			<point x="458" y="-143"/>
			<point x="468" y="-110"/>
			<point x="492" y="-71" type="curve" smooth="yes"/>
			<point x="503" y="-52"/>
			<point x="518" y="-31"/>
			<point x="536" y="-7" type="curve" smooth="yes"/>
			<point x="593" y="68"/>
			<point x="636" y="137"/>
			<point x="663" y="199" type="curve" smooth="yes"/>
			<point x="689" y="258"/>
			<point x="702" y="321"/>
			<point x="702" y="390" type="curve" smooth="yes"/>
			<point x="702" y="553"/>
			<point x="644" y="672"/>
			<point x="537" y="735" type="curve" smooth="yes"/>
			<point x="484" y="766"/>
			<point x="419" y="782"/>
			<point x="344" y="782" type="curve" smooth="yes"/>
			<point x="197" y="782"/>
			<point x="92" y="721"/>
			<point x="39" y="608" type="curve" smooth="yes"/>
			<point x="12" y="552"/>
			<point x="-1" y="485"/>
			<point x="-1" y="408" type="curve" smooth="yes"/>
			<point x="-1" y="202"/>
			<point x="51" y="83"/>
			<point x="155" y="50" type="curve"/>
			<point x="134" y="13"/>
			<point x="123" y="-25"/>
			<point x="123" y="-64" type="curve" smooth="yes"/>
			<point x="123" y="-113"/>
			<point x="133" y="-152"/>
			<point x="153" y="-182" type="curve"/>
			<point x="243" y="-182" type="line"/>
			<point x="218" y="-147"/>
			<point x="205" y="-108"/>
			<point x="205" y="-63" type="curve" smooth="yes"/>
			<point x="205" y="-26"/>
			<point x="212" y="8"/>
			<point x="225" y="40" type="curve"/>
			<point x="228" y="40" type="line" smooth="yes"/>
			<point x="296" y="40"/>
			<point x="351" y="82"/>
			<point x="382" y="154" type="curve" smooth="yes"/>
			<point x="397" y="189"/>
			<point x="405" y="230"/>
			<point x="405" y="275" type="curve" smooth="yes"/>
			<point x="405" y="318"/>
			<point x="394" y="411"/>
			<point x="382" y="444" type="curve"/>
			<point x="78" y="444" type="line"/>
			<point x="82" y="605"/>
			<point x="181" y="699"/>
			<point x="344" y="699" type="curve" smooth="yes"/>
			<point x="521" y="699"/>
			<point x="623" y="584"/>
			<point x="623" y="388" type="curve" smooth="yes"/>
			<point x="623" y="331"/>
			<point x="613" y="278"/>
			<point x="594" y="230" type="curve" smooth="yes"/>
			<point x="575" y="183"/>
			<point x="539" y="123"/>
			<point x="484" y="50" type="curve" smooth="yes"/>
			<point x="411" y="-47"/>
			<point x="378" y="-108"/>
			<point x="378" y="-187" type="curve" smooth="yes"/>
			<point x="378" y="-214"/>
			<point x="384" y="-239"/>
		</contour>
		<contour>
			<point x="218" y="123" type="curve" smooth="yes"/>
			<point x="127" y="123"/>
			<point x="81" y="203"/>
			<point x="78" y="364" type="curve"/>
			<point x="316" y="364" type="line"/>
			<point x="323" y="344"/>
			<point x="326" y="314"/>
			<point x="326" y="275" type="curve" smooth="yes"/>
			<point x="326" y="186"/>
			<point x="289" y="123"/>
		</contour>
	</outline>
</glyph>
<glyph name="f.F.medi" format="2">
	<advance width="511" height="1750"/>
	<note>
		u1839.med
	</note>
	<outline>
		<contour>
			<point x="153" y="-182" type="curve"/>
			<point x="243" y="-182" type="line"/>
			<point x="218" y="-147"/>
			<point x="205" y="-108"/>
			<point x="205" y="-63" type="curve" smooth="yes"/>
			<point x="205" y="-26"/>
			<point x="212" y="8"/>
			<point x="225" y="40" type="curve"/>
			<point x="229" y="40" type="line" smooth="yes"/>
			<point x="296" y="40"/>
			<point x="351" y="81"/>
			<point x="382" y="153" type="curve" smooth="yes"/>
			<point x="397" y="188"/>
			<point x="405" y="229"/>
			<point x="405" y="274" type="curve" smooth="yes"/>
			<point x="405" y="314"/>
			<point x="393" y="412"/>
			<point x="382" y="444" type="curve"/>
			<point x="78" y="444" type="line"/>
			<point x="79" y="543"/>
			<point x="113" y="621"/>
			<point x="174" y="666" type="curve" smooth="yes"/>
			<point x="205" y="688"/>
			<point x="244" y="699"/>
			<point x="289" y="699" type="curve" smooth="yes"/>
			<point x="422" y="699"/>
			<point x="506" y="575"/>
			<point x="511" y="364" type="curve"/>
			<point x="585" y="364" type="line"/>
			<point x="585" y="476"/>
			<point x="560" y="580"/>
			<point x="511" y="657" type="curve" smooth="yes"/>
			<point x="460" y="737"/>
			<point x="386" y="782"/>
			<point x="290" y="782" type="curve" smooth="yes"/>
			<point x="163" y="782"/>
			<point x="75" y="716"/>
			<point x="31" y="601" type="curve" smooth="yes"/>
			<point x="10" y="544"/>
			<point x="-1" y="480"/>
			<point x="-1" y="408" type="curve" smooth="yes"/>
			<point x="-1" y="202"/>
			<point x="51" y="83"/>
			<point x="155" y="50" type="curve"/>
			<point x="134" y="13"/>
			<point x="123" y="-25"/>
			<point x="123" y="-64" type="curve" smooth="yes"/>
			<point x="123" y="-113"/>
			<point x="133" y="-152"/>
		</contour>
		<contour>
			<point x="218" y="123" type="curve" smooth="yes"/>
			<point x="127" y="123"/>
			<point x="80" y="203"/>
			<point x="78" y="364" type="curve"/>
			<point x="316" y="364" type="line"/>
			<point x="323" y="346"/>
			<point x="326" y="316"/>
			<point x="326" y="275" type="curve" smooth="yes"/>
			<point x="326" y="186"/>
			<point x="289" y="123"/>
		</contour>
	</outline>
</glyph>
<glyph name="g.G.fina" format="2">
	<advance width="668" height="1750"/>
	<note>
		u182D.finV1
	</note>
	<outline>
		<contour>
			<point x="362" y="-264" type="curve"/>
			<point x="444" y="-264" type="line"/>
			<point x="430" y="-238"/>
			<point x="423" y="-212"/>
			<point x="423" y="-187" type="curve" smooth="yes"/>
			<point x="423" y="-130"/>
			<point x="441" y="-98"/>
			<point x="490" y="-31" type="curve" smooth="yes"/>
			<point x="542" y="37"/>
			<point x="577" y="91"/>
			<point x="595" y="131" type="curve" smooth="yes"/>
			<point x="614" y="171"/>
			<point x="623" y="209"/>
			<point x="623" y="245" type="curve" smooth="yes"/>
			<point x="623" y="374"/>
			<point x="544" y="444"/>
			<point x="392" y="444" type="curve" smooth="yes"/>
			<point x="0" y="444" type="line"/>
			<point x="0" y="364" type="line"/>
			<point x="39" y="220"/>
			<point x="96" y="76"/>
			<point x="173" y="-67" type="curve"/>
			<point x="246" y="-31" type="line"/>
			<point x="173" y="98"/>
			<point x="118" y="229"/>
			<point x="79" y="364" type="curve"/>
			<point x="391" y="364" type="line" smooth="yes"/>
			<point x="496" y="364"/>
			<point x="545" y="325"/>
			<point x="545" y="245" type="curve" smooth="yes"/>
			<point x="545" y="200"/>
			<point x="534" y="171"/>
			<point x="503" y="120" type="curve" smooth="yes"/>
			<point x="488" y="95"/>
			<point x="467" y="65"/>
			<point x="438" y="28" type="curve" smooth="yes"/>
			<point x="375" y="-53"/>
			<point x="343" y="-114"/>
			<point x="343" y="-187" type="curve" smooth="yes"/>
			<point x="343" y="-217"/>
			<point x="349" y="-243"/>
		</contour>
	</outline>
</glyph>
<glyph name="h.Gh.fina" format="2">
	<advance width="663" height="1750"/>
	<note>
		u182C.finV1
	</note>
	<outline>
		<contour>
			<point x="506" y="74" type="curve"/>
			<point x="506" y="186" type="line" smooth="yes"/>
			<point x="506" y="369"/>
			<point x="538" y="522"/>
			<point x="618" y="666" type="curve"/>
			<point x="525" y="666" type="line"/>
			<point x="460" y="537"/>
			<point x="427" y="377"/>
			<point x="427" y="188" type="curve"/>
			<point x="344" y="235"/>
			<point x="321" y="309"/>
			<point x="321" y="444" type="curve"/>
			<point x="0" y="444" type="line"/>
			<point x="0" y="364" type="line"/>
			<point x="19" y="96" type="line"/>
			<point x="85" y="96" type="line"/>
			<point x="104" y="364" type="line"/>
			<point x="251" y="364" type="line"/>
			<point x="251" y="264"/>
			<point x="299" y="169"/>
			<point x="377" y="115" type="curve" smooth="yes"/>
			<point x="416" y="88"/>
			<point x="459" y="74"/>
		</contour>
		<contour>
			<point x="200" y="-102" type="curve"/>
			<point x="243" y="-141" type="line"/>
			<point x="278" y="-105"/>
			<point x="324" y="-66"/>
			<point x="382" y="-25" type="curve"/>
			<point x="321" y="44" type="line"/>
			<point x="282" y="5"/>
			<point x="241" y="-44"/>
		</contour>
		<contour>
			<point x="419" y="-157" type="curve"/>
			<point x="462" y="-196" type="line"/>
			<point x="497" y="-160"/>
			<point x="543" y="-121"/>
			<point x="601" y="-80" type="curve"/>
			<point x="540" y="-11" type="line"/>
			<point x="501" y="-50"/>
			<point x="460" y="-99"/>
		</contour>
	</outline>
</glyph>
<glyph name="i.AI.isol" format="2">
	<advance width="993" height="1750"/>
	<note>
		u1822
	</note>
	<outline>
		<contour>
			<point x="619" y="42" type="curve"/>
			<point x="691" y="85" type="line"/>
			<point x="611" y="197"/>
			<point x="569" y="294"/>
			<point x="569" y="407" type="curve" smooth="yes"/>
			<point x="569" y="542"/>
			<point x="623" y="609"/>
			<point x="718" y="609" type="curve" smooth="yes"/>
			<point x="806" y="609"/>
			<point x="857" y="527"/>
			<point x="868" y="376" type="curve"/>
			<point x="948" y="386" type="line"/>
			<point x="941" y="502"/>
			<point x="907" y="595"/>
			<point x="844" y="650" type="curve" smooth="yes"/>
			<point x="811" y="678"/>
			<point x="769" y="692"/>
			<point x="718" y="692" type="curve" smooth="yes"/>
			<point x="585" y="692"/>
			<point x="502" y="597"/>
			<point x="491" y="444" type="curve"/>
			<point x="444" y="444" type="line" smooth="yes"/>
			<point x="360" y="444"/>
			<point x="307" y="416"/>
			<point x="285" y="361" type="curve"/>
			<point x="281" y="361" type="line"/>
			<point x="278" y="445" type="line" smooth="yes"/>
			<point x="275" y="537"/>
			<point x="260" y="596"/>
			<point x="223" y="628" type="curve" smooth="yes"/>
			<point x="204" y="645"/>
			<point x="176" y="653"/>
			<point x="139" y="653" type="curve" smooth="yes"/>
			<point x="100" y="653"/>
			<point x="57" y="643"/>
			<point x="10" y="623" type="curve"/>
			<point x="10" y="550" type="line"/>
			<point x="51" y="567"/>
			<point x="87" y="575"/>
			<point x="118" y="575" type="curve" smooth="yes"/>
			<point x="175" y="575"/>
			<point x="195" y="529"/>
			<point x="200" y="437" type="curve" smooth="yes"/>
			<point x="226" y="74" type="line"/>
			<point x="292" y="74" type="line"/>
			<point x="302" y="219" type="line" smooth="yes"/>
			<point x="307" y="294"/>
			<point x="323" y="331"/>
			<point x="361" y="350" type="curve" smooth="yes"/>
			<point x="380" y="359"/>
			<point x="408" y="364"/>
			<point x="445" y="364" type="curve" smooth="yes"/>
			<point x="492" y="364" type="line"/>
			<point x="501" y="261"/>
			<point x="543" y="153"/>
		</contour>
	</outline>
</glyph>
<glyph name="i.II.medi" format="2">
	<advance width="654" height="1750"/>
	<note>
		u1822.medV2
	</note>
	<outline>
		<contour>
			<point x="173" y="-67" type="curve"/>
			<point x="246" y="-31" type="line"/>
			<point x="173" y="98"/>
			<point x="118" y="229"/>
			<point x="79" y="364" type="curve"/>
			<point x="293" y="364" type="line"/>
			<point x="332" y="220"/>
			<point x="389" y="76"/>
			<point x="466" y="-67" type="curve"/>
			<point x="539" y="-31" type="line"/>
			<point x="466" y="98"/>
			<point x="411" y="229"/>
			<point x="372" y="364" type="curve"/>
			<point x="684" y="364" type="line"/>
			<point x="684" y="444" type="line"/>
			<point x="0" y="444" type="line"/>
			<point x="0" y="364" type="line"/>
			<point x="39" y="220"/>
			<point x="96" y="76"/>
		</contour>
	</outline>
</glyph>
<glyph name="k2.K2.init._isol" format="2">
	<advance width="551" height="1750"/>
	<note>
		u183A
	</note>
	<outline>
		<contour>
			<point x="244" y="35" type="curve"/>
			<point x="306" y="90" type="line"/>
			<point x="182" y="223"/>
			<point x="124" y="330"/>
			<point x="124" y="419" type="curve" smooth="yes"/>
			<point x="124" y="511"/>
			<point x="145" y="576"/>
			<point x="187" y="614" type="curve" smooth="yes"/>
			<point x="209" y="634"/>
			<point x="238" y="644"/>
			<point x="274" y="644" type="curve" smooth="yes"/>
			<point x="365" y="644"/>
			<point x="415" y="570"/>
			<point x="427" y="409" type="curve"/>
			<point x="506" y="419" type="line"/>
			<point x="498" y="538"/>
			<point x="463" y="632"/>
			<point x="399" y="686" type="curve" smooth="yes"/>
			<point x="366" y="713"/>
			<point x="325" y="727"/>
			<point x="274" y="727" type="curve" smooth="yes"/>
			<point x="175" y="727"/>
			<point x="106" y="672"/>
			<point x="71" y="577" type="curve" smooth="yes"/>
			<point x="54" y="530"/>
			<point x="45" y="478"/>
			<point x="45" y="419" type="curve" smooth="yes"/>
			<point x="45" y="96" type="line"/>
			<point x="111" y="96" type="line"/>
			<point x="119" y="215" type="line"/>
			<point x="146" y="158"/>
			<point x="187" y="98"/>
		</contour>
	</outline>
</glyph>
<glyph name="l.L.init._isol" format="2">
	<advance width="567" height="1750"/>
	<note>
		u182F
	</note>
	<outline>
		<contour>
			<point x="200" y="437" type="curve" smooth="yes"/>
			<point x="226" y="74" type="line"/>
			<point x="292" y="74" type="line"/>
			<point x="302" y="219" type="line" smooth="yes"/>
			<point x="307" y="296"/>
			<point x="322" y="334"/>
			<point x="361" y="351" type="curve" smooth="yes"/>
			<point x="381" y="360"/>
			<point x="409" y="364"/>
			<point x="445" y="364" type="curve" smooth="yes"/>
			<point x="522" y="364" type="line"/>
			<point x="522" y="444" type="line"/>
			<point x="444" y="444" type="line" smooth="yes"/>
			<point x="360" y="444"/>
			<point x="307" y="416"/>
			<point x="285" y="361" type="curve"/>
			<point x="281" y="361" type="line"/>
			<point x="278" y="445" type="line" smooth="yes"/>
			<point x="276" y="500"/>
			<point x="270" y="543"/>
			<point x="259" y="573" type="curve"/>
			<point x="266" y="638"/>
			<point x="291" y="695"/>
			<point x="339" y="766" type="curve"/>
			<point x="339" y="832" type="line"/>
			<point x="219" y="832" type="line" smooth="yes"/>
			<point x="135" y="832"/>
			<point x="82" y="837"/>
			<point x="39" y="868" type="curve"/>
			<point x="39" y="790" type="line"/>
			<point x="76" y="758"/>
			<point x="126" y="752"/>
			<point x="219" y="752" type="curve" smooth="yes"/>
			<point x="247" y="752" type="line"/>
			<point x="228" y="723"/>
			<point x="212" y="686"/>
			<point x="200" y="642" type="curve"/>
			<point x="181" y="649"/>
			<point x="161" y="653"/>
			<point x="139" y="653" type="curve" smooth="yes"/>
			<point x="100" y="653"/>
			<point x="57" y="643"/>
			<point x="10" y="623" type="curve"/>
			<point x="10" y="550" type="line"/>
			<point x="51" y="567"/>
			<point x="87" y="575"/>
			<point x="118" y="575" type="curve" smooth="yes"/>
			<point x="177" y="575"/>
			<point x="193" y="530"/>
		</contour>
	</outline>
</glyph>
<glyph name="l.L.medi" format="2">
	<advance width="284" height="1750"/>
	<note>
		u182F.med
	</note>
	<outline>
		<contour>
			<point x="19" y="96" type="line"/>
			<point x="85" y="96" type="line"/>
			<point x="104" y="364" type="line"/>
			<point x="314" y="364" type="line"/>
			<point x="314" y="444" type="line"/>
			<point x="86" y="444" type="line"/>
			<point x="89" y="516"/>
			<point x="108" y="578"/>
			<point x="148" y="653" type="curve"/>
			<point x="148" y="719" type="line"/>
			<point x="28" y="719" type="line" smooth="yes"/>
			<point x="-57" y="719"/>
			<point x="-105" y="724"/>
			<point x="-152" y="755" type="curve"/>
			<point x="-152" y="677" type="line"/>
			<point x="-115" y="645"/>
			<point x="-67" y="639"/>
			<point x="28" y="639" type="curve" smooth="yes"/>
			<point x="62" y="639" type="line"/>
			<point x="35" y="581"/>
			<point x="19" y="516"/>
			<point x="16" y="444" type="curve"/>
			<point x="0" y="444" type="line"/>
			<point x="0" y="364" type="line"/>
		</contour>
	</outline>
</glyph>
<glyph name="m.M.init._isol" format="2">
	<advance width="567" height="1750"/>
	<note>
		u182E
	</note>
	<outline>
		<contour>
			<point x="200" y="437" type="curve" smooth="yes"/>
			<point x="226" y="74" type="line"/>
			<point x="292" y="74" type="line"/>
			<point x="302" y="219" type="line" smooth="yes"/>
			<point x="307" y="294"/>
			<point x="323" y="331"/>
			<point x="361" y="350" type="curve" smooth="yes"/>
			<point x="380" y="359"/>
			<point x="408" y="364"/>
			<point x="445" y="364" type="curve" smooth="yes"/>
			<point x="522" y="364" type="line"/>
			<point x="522" y="444" type="line"/>
			<point x="444" y="444" type="line" smooth="yes"/>
			<point x="360" y="444"/>
			<point x="307" y="416"/>
			<point x="285" y="361" type="curve"/>
			<point x="281" y="361" type="line"/>
			<point x="278" y="508"/>
			<point x="266" y="610"/>
			<point x="229" y="693" type="curve"/>
			<point x="265" y="693" type="line" smooth="yes"/>
			<point x="320" y="693"/>
			<point x="359" y="696"/>
			<point x="383" y="701" type="curve" smooth="yes"/>
			<point x="406" y="706"/>
			<point x="427" y="716"/>
			<point x="444" y="731" type="curve"/>
			<point x="444" y="808" type="line"/>
			<point x="430" y="798"/>
			<point x="409" y="789"/>
			<point x="380" y="782" type="curve" smooth="yes"/>
			<point x="355" y="776"/>
			<point x="317" y="773"/>
			<point x="265" y="773" type="curve" smooth="yes"/>
			<point x="144" y="773" type="line"/>
			<point x="144" y="716" type="line"/>
			<point x="163" y="699"/>
			<point x="178" y="675"/>
			<point x="189" y="646" type="curve"/>
			<point x="174" y="651"/>
			<point x="157" y="653"/>
			<point x="139" y="653" type="curve" smooth="yes"/>
			<point x="100" y="653"/>
			<point x="57" y="643"/>
			<point x="10" y="623" type="curve"/>
			<point x="10" y="550" type="line"/>
			<point x="51" y="567"/>
			<point x="87" y="575"/>
			<point x="118" y="575" type="curve" smooth="yes"/>
			<point x="177" y="575"/>
			<point x="195" y="532"/>
		</contour>
	</outline>
</glyph>
<glyph name="m.M.medi" format="2">
	<advance width="284" height="1750"/>
	<note>
		u182E.med
	</note>
	<outline>
		<contour>
			<point x="19" y="96" type="line"/>
			<point x="85" y="96" type="line"/>
			<point x="104" y="364" type="line"/>
			<point x="314" y="364" type="line"/>
			<point x="314" y="444" type="line"/>
			<point x="84" y="444" type="line"/>
			<point x="81" y="518"/>
			<point x="71" y="583"/>
			<point x="54" y="639" type="curve"/>
			<point x="90" y="639" type="line" smooth="yes"/>
			<point x="185" y="639"/>
			<point x="230" y="644"/>
			<point x="269" y="677" type="curve"/>
			<point x="269" y="754" type="line"/>
			<point x="221" y="726"/>
			<point x="174" y="719"/>
			<point x="90" y="719" type="curve" smooth="yes"/>
			<point x="-31" y="719" type="line"/>
			<point x="-31" y="653" type="line"/>
			<point x="0" y="581"/>
			<point x="13" y="519"/>
			<point x="14" y="444" type="curve"/>
			<point x="0" y="444" type="line"/>
			<point x="0" y="364" type="line"/>
		</contour>
	</outline>
</glyph>
<glyph name="n.N.fina" format="2">
	<advance width="427" height="1750"/>
	<note>
		u1828.finV1
	</note>
	<outline>
		<contour>
			<point x="228" y="53" type="curve"/>
			<point x="228" y="156" type="line" smooth="yes"/>
			<point x="228" y="297"/>
			<point x="244" y="427"/>
			<point x="277" y="547" type="curve" smooth="yes"/>
			<point x="308" y="664"/>
			<point x="355" y="761"/>
			<point x="417" y="836" type="curve"/>
			<point x="325" y="836" type="line"/>
			<point x="273" y="768"/>
			<point x="231" y="674"/>
			<point x="199" y="555" type="curve" smooth="yes"/>
			<point x="167" y="435"/>
			<point x="151" y="302"/>
			<point x="151" y="156" type="curve"/>
			<point x="94" y="189"/>
			<point x="60" y="245"/>
			<point x="49" y="323" type="curve" smooth="yes"/>
			<point x="44" y="360"/>
			<point x="41" y="400"/>
			<point x="41" y="444" type="curve"/>
			<point x="-33" y="444" type="line"/>
			<point x="-33" y="364" type="line" smooth="yes"/>
			<point x="-33" y="257"/>
			<point x="12" y="162"/>
			<point x="89" y="103" type="curve" smooth="yes"/>
			<point x="128" y="73"/>
			<point x="175" y="56"/>
		</contour>
		<contour>
			<point x="139" y="-146" type="curve"/>
			<point x="182" y="-185" type="line"/>
			<point x="217" y="-149"/>
			<point x="263" y="-110"/>
			<point x="321" y="-69" type="curve"/>
			<point x="260" y="0" type="line"/>
			<point x="221" y="-39"/>
			<point x="180" y="-88"/>
		</contour>
	</outline>
</glyph>
<glyph name="n.N.medi" format="2">
	<advance width="284" height="1750"/>
	<note>
		u1828.med
	</note>
	<outline>
		<contour>
			<point x="19" y="96" type="line"/>
			<point x="85" y="96" type="line"/>
			<point x="104" y="364" type="line"/>
			<point x="314" y="364" type="line"/>
			<point x="314" y="444" type="line"/>
			<point x="0" y="444" type="line"/>
			<point x="0" y="364" type="line"/>
		</contour>
		<contour>
			<point x="2" y="-124" type="curve"/>
			<point x="45" y="-163" type="line"/>
			<point x="80" y="-127"/>
			<point x="126" y="-88"/>
			<point x="184" y="-47" type="curve"/>
			<point x="123" y="22" type="line"/>
			<point x="84" y="-17"/>
			<point x="43" y="-66"/>
		</contour>
	</outline>
</glyph>
<glyph name="ng.AG.medi._isol" format="2">
	<advance width="738" height="1750"/>
	<note>
		u1829
	</note>
	<outline>
		<contour>
			<point x="383" y="70" type="curve"/>
			<point x="457" y="112" type="line"/>
			<point x="397" y="212"/>
			<point x="366" y="297"/>
			<point x="366" y="396" type="curve" smooth="yes"/>
			<point x="366" y="501"/>
			<point x="410" y="563"/>
			<point x="489" y="563" type="curve" smooth="yes"/>
			<point x="564" y="563"/>
			<point x="611" y="496"/>
			<point x="619" y="364" type="curve"/>
			<point x="693" y="364" type="line"/>
			<point x="689" y="472"/>
			<point x="658" y="559"/>
			<point x="602" y="608" type="curve" smooth="yes"/>
			<point x="573" y="633"/>
			<point x="535" y="646"/>
			<point x="489" y="646" type="curve" smooth="yes"/>
			<point x="376" y="646"/>
			<point x="303" y="565"/>
			<point x="290" y="444" type="curve"/>
			<point x="45" y="444" type="line"/>
			<point x="45" y="364" type="line"/>
			<point x="64" y="96" type="line"/>
			<point x="130" y="96" type="line"/>
			<point x="149" y="364" type="line"/>
			<point x="288" y="364" type="line"/>
			<point x="295" y="269"/>
			<point x="326" y="171"/>
		</contour>
	</outline>
</glyph>
<glyph name="nirugu.effective" format="2">
	<advance width="168" height="1750"/>
	<note>
		u180A
	</note>
	<outline>
		<contour>
			<point x="0" y="364" type="line"/>
			<point x="188" y="364" type="line"/>
			<point x="188" y="444" type="line"/>
			<point x="0" y="444" type="line"/>
		</contour>
	</outline>
</glyph>
<glyph name="o.U.fina" format="2">
	<advance width="634" height="1750"/>
	<note>
		u1823.fin
	</note>
	<outline>
		<contour>
			<point x="225" y="40" type="curve" smooth="yes"/>
			<point x="294" y="40"/>
			<point x="351" y="81"/>
			<point x="382" y="153" type="curve" smooth="yes"/>
			<point x="397" y="188"/>
			<point x="405" y="229"/>
			<point x="405" y="275" type="curve" smooth="yes"/>
			<point x="405" y="318"/>
			<point x="394" y="411"/>
			<point x="382" y="444" type="curve"/>
			<point x="78" y="444" type="line"/>
			<point x="81" y="544"/>
			<point x="114" y="622"/>
			<point x="174" y="666" type="curve" smooth="yes"/>
			<point x="205" y="688"/>
			<point x="243" y="699"/>
			<point x="289" y="699" type="curve" smooth="yes"/>
			<point x="378" y="699"/>
			<point x="441" y="647"/>
			<point x="477" y="557" type="curve" smooth="yes"/>
			<point x="494" y="513"/>
			<point x="505" y="464"/>
			<point x="509" y="409" type="curve"/>
			<point x="589" y="419" type="line"/>
			<point x="582" y="518"/>
			<point x="552" y="607"/>
			<point x="501" y="675" type="curve" smooth="yes"/>
			<point x="447" y="746"/>
			<point x="376" y="782"/>
			<point x="289" y="782" type="curve" smooth="yes"/>
			<point x="162" y="782"/>
			<point x="75" y="716"/>
			<point x="31" y="601" type="curve" smooth="yes"/>
			<point x="10" y="544"/>
			<point x="-1" y="480"/>
			<point x="-1" y="408" type="curve" smooth="yes"/>
			<point x="-1" y="163"/>
			<point x="73" y="40"/>
		</contour>
		<contour>
			<point x="218" y="123" type="curve" smooth="yes"/>
			<point x="127" y="123"/>
			<point x="81" y="203"/>
			<point x="78" y="364" type="curve"/>
			<point x="316" y="364" type="line"/>
			<point x="323" y="344"/>
			<point x="326" y="314"/>
			<point x="326" y="275" type="curve" smooth="yes"/>
			<point x="326" y="186"/>
			<point x="289" y="123"/>
		</contour>
	</outline>
</glyph>
<glyph name="oe.O.fina" format="2">
	<advance width="440" height="1750"/>
	<note>
		u1823.finV1
	</note>
	<outline>
		<contour>
			<point x="197" y="40" type="curve" smooth="yes"/>
			<point x="322" y="40"/>
			<point x="395" y="121"/>
			<point x="395" y="249" type="curve" smooth="yes"/>
			<point x="395" y="316"/>
			<point x="379" y="389"/>
			<point x="348" y="444" type="curve"/>
			<point x="0" y="444" type="line"/>
			<point x="0" y="364" type="line"/>
			<point x="20" y="364" type="line"/>
			<point x="7" y="332"/>
			<point x="0" y="294"/>
			<point x="0" y="249" type="curve" smooth="yes"/>
			<point x="0" y="116"/>
			<point x="69" y="40"/>
		</contour>
		<contour>
			<point x="197" y="123" type="curve" smooth="yes"/>
			<point x="118" y="123"/>
			<point x="79" y="166"/>
			<point x="79" y="251" type="curve" smooth="yes"/>
			<point x="79" y="294"/>
			<point x="86" y="332"/>
			<point x="99" y="364" type="curve"/>
			<point x="294" y="364" type="line"/>
			<point x="309" y="331"/>
			<point x="316" y="293"/>
			<point x="316" y="251" type="curve" smooth="yes"/>
			<point x="316" y="167"/>
			<point x="273" y="123"/>
		</contour>
	</outline>
</glyph>
<glyph name="r.R.fina" format="2">
	<advance width="504" height="1750"/>
	<note>
		u1837.fin
	</note>
	<outline>
		<contour>
			<point x="137" y="12" type="curve"/>
			<point x="208" y="55" type="line"/>
			<point x="161" y="122"/>
			<point x="127" y="182"/>
			<point x="107" y="236" type="curve"/>
			<point x="193" y="236" type="line" smooth="yes"/>
			<point x="273" y="236"/>
			<point x="309" y="195"/>
			<point x="309" y="115" type="curve" smooth="yes"/>
			<point x="309" y="88"/>
			<point x="304" y="65"/>
			<point x="294" y="47" type="curve"/>
			<point x="374" y="47" type="line"/>
			<point x="385" y="68"/>
			<point x="390" y="94"/>
			<point x="390" y="126" type="curve" smooth="yes"/>
			<point x="390" y="242"/>
			<point x="317" y="315"/>
			<point x="196" y="315" type="curve" smooth="yes"/>
			<point x="85" y="315" type="line"/>
			<point x="80" y="339"/>
			<point x="77" y="370"/>
			<point x="77" y="407" type="curve" smooth="yes"/>
			<point x="77" y="496"/>
			<point x="98" y="569"/>
			<point x="142" y="610" type="curve" smooth="yes"/>
			<point x="164" y="631"/>
			<point x="193" y="642"/>
			<point x="229" y="642" type="curve" smooth="yes"/>
			<point x="317" y="642"/>
			<point x="370" y="558"/>
			<point x="379" y="409" type="curve"/>
			<point x="459" y="419" type="line"/>
			<point x="452" y="538"/>
			<point x="418" y="632"/>
			<point x="354" y="685" type="curve" smooth="yes"/>
			<point x="321" y="712"/>
			<point x="280" y="725"/>
			<point x="229" y="725" type="curve" smooth="yes"/>
			<point x="129" y="725"/>
			<point x="59" y="668"/>
			<point x="24" y="569" type="curve" smooth="yes"/>
			<point x="7" y="521"/>
			<point x="-2" y="467"/>
			<point x="-2" y="407" type="curve" smooth="yes"/>
			<point x="-2" y="283"/>
			<point x="44" y="151"/>
		</contour>
	</outline>
</glyph>
<glyph name="u.AO.isol" format="2">
	<advance width="932" height="1750"/>
	<note>
		u1824.iso
	</note>
	<outline>
		<contour>
			<point x="689" y="40" type="curve" smooth="yes"/>
			<point x="814" y="40"/>
			<point x="887" y="121"/>
			<point x="887" y="249" type="curve" smooth="yes"/>
			<point x="887" y="313"/>
			<point x="868" y="393"/>
			<point x="840" y="444" type="curve"/>
			<point x="444" y="444" type="line" smooth="yes"/>
			<point x="360" y="444"/>
			<point x="307" y="416"/>
			<point x="285" y="361" type="curve"/>
			<point x="281" y="361" type="line"/>
			<point x="278" y="445" type="line" smooth="yes"/>
			<point x="275" y="537"/>
			<point x="260" y="596"/>
			<point x="223" y="628" type="curve" smooth="yes"/>
			<point x="204" y="645"/>
			<point x="176" y="653"/>
			<point x="139" y="653" type="curve" smooth="yes"/>
			<point x="100" y="653"/>
			<point x="57" y="643"/>
			<point x="10" y="623" type="curve"/>
			<point x="10" y="550" type="line"/>
			<point x="51" y="567"/>
			<point x="87" y="575"/>
			<point x="118" y="575" type="curve" smooth="yes"/>
			<point x="175" y="575"/>
			<point x="195" y="529"/>
			<point x="200" y="437" type="curve" smooth="yes"/>
			<point x="226" y="74" type="line"/>
			<point x="292" y="74" type="line"/>
			<point x="302" y="219" type="line" smooth="yes"/>
			<point x="307" y="294"/>
			<point x="323" y="331"/>
			<point x="361" y="350" type="curve" smooth="yes"/>
			<point x="380" y="359"/>
			<point x="408" y="364"/>
			<point x="445" y="364" type="curve" smooth="yes"/>
			<point x="512" y="364" type="line"/>
			<point x="499" y="332"/>
			<point x="492" y="294"/>
			<point x="492" y="249" type="curve" smooth="yes"/>
			<point x="492" y="116"/>
			<point x="562" y="40"/>
		</contour>
		<contour>
			<point x="689" y="123" type="curve" smooth="yes"/>
			<point x="610" y="123"/>
			<point x="571" y="166"/>
			<point x="571" y="251" type="curve" smooth="yes"/>
			<point x="571" y="294"/>
			<point x="578" y="331"/>
			<point x="591" y="364" type="curve"/>
			<point x="786" y="364" type="line"/>
			<point x="801" y="330"/>
			<point x="808" y="292"/>
			<point x="808" y="251" type="curve" smooth="yes"/>
			<point x="808" y="167"/>
			<point x="765" y="123"/>
		</contour>
	</outline>
</glyph>
<glyph name="w.W.init" format="2">
	<advance width="520" height="1750"/>
	<note>
		u1838.ini
	</note>
	<outline>
		<contour>
			<point x="371" y="-119" type="curve" smooth="yes"/>
			<point x="410" y="-119"/>
			<point x="438" y="-108"/>
			<point x="454" y="-85" type="curve"/>
			<point x="454" y="6" type="line"/>
			<point x="435" y="-22"/>
			<point x="408" y="-36"/>
			<point x="371" y="-36" type="curve" smooth="yes"/>
			<point x="330" y="-36"/>
			<point x="296" y="-3"/>
			<point x="264" y="58" type="curve" smooth="yes"/>
			<point x="249" y="87"/>
			<point x="233" y="118"/>
			<point x="218" y="152" type="curve" smooth="yes"/>
			<point x="188" y="220"/>
			<point x="162" y="291"/>
			<point x="141" y="364" type="curve"/>
			<point x="550" y="364" type="line"/>
			<point x="550" y="444" type="line"/>
			<point x="45" y="444" type="line"/>
			<point x="70" y="311"/>
			<point x="116" y="176"/>
			<point x="181" y="41" type="curve" smooth="yes"/>
			<point x="232" y="-66"/>
			<point x="284" y="-119"/>
		</contour>
	</outline>
</glyph>
<glyph name="y.I.medi" format="2">
	<advance width="361" height="1750"/>
	<note>
		u1836.medV1
	</note>
	<outline>
		<contour>
			<point x="173" y="-67" type="curve"/>
			<point x="246" y="-31" type="line"/>
			<point x="173" y="98"/>
			<point x="118" y="229"/>
			<point x="79" y="364" type="curve"/>
			<point x="391" y="364" type="line"/>
			<point x="391" y="444" type="line"/>
			<point x="0" y="444" type="line"/>
			<point x="0" y="364" type="line"/>
			<point x="39" y="220"/>
			<point x="96" y="76"/>
		</contour>
	</outline>
</glyph>
<glyph name="z.Z.init" format="2">
	<advance width="740" height="1750"/>
	<note>
		u183D.ini
	</note>
	<outline>
		<contour>
			<point x="611" y="-119" type="curve" smooth="yes"/>
			<point x="651" y="-119"/>
			<point x="679" y="-108"/>
			<point x="696" y="-85" type="curve"/>
			<point x="696" y="6" type="line"/>
			<point x="676" y="-22"/>
			<point x="649" y="-36"/>
			<point x="614" y="-36" type="curve" smooth="yes"/>
			<point x="562" y="-36"/>
			<point x="528" y="-6"/>
			<point x="512" y="55" type="curve" smooth="yes"/>
			<point x="505" y="83"/>
			<point x="501" y="115"/>
			<point x="501" y="151" type="curve" smooth="yes"/>
			<point x="501" y="216"/>
			<point x="511" y="287"/>
			<point x="531" y="364" type="curve"/>
			<point x="770" y="364" type="line"/>
			<point x="770" y="444" type="line"/>
			<point x="63" y="444" type="line"/>
			<point x="45" y="364" type="line"/>
			<point x="456" y="364" type="line"/>
			<point x="437" y="291"/>
			<point x="428" y="217"/>
			<point x="428" y="143" type="curve"/>
			<point x="397" y="143" type="line" smooth="yes"/>
			<point x="285" y="143"/>
			<point x="219" y="136"/>
			<point x="162" y="101" type="curve"/>
			<point x="162" y="16" type="line"/>
			<point x="225" y="55"/>
			<point x="288" y="63"/>
			<point x="397" y="63" type="curve" smooth="yes"/>
			<point x="432" y="63" type="line"/>
			<point x="447" y="-49"/>
			<point x="511" y="-119"/>
		</contour>
	</outline>
</glyph>
<glyph name="zr.Zr.init._isol" format="2">
	<advance width="641" height="1750"/>
	<note>
		u1841
	</note>
	<outline>
		<contour>
			<point x="185" y="-182" type="curve"/>
			<point x="454" y="-57" type="line"/>
			<point x="379" y="82"/>
			<point x="343" y="215"/>
			<point x="340" y="364" type="curve"/>
			<point x="596" y="364" type="line"/>
			<point x="596" y="444" type="line"/>
			<point x="264" y="444" type="line"/>
			<point x="264" y="366" type="line" smooth="yes"/>
			<point x="264" y="221"/>
			<point x="292" y="93"/>
			<point x="348" y="-17" type="curve"/>
			<point x="224" y="-72" type="line"/>
			<point x="151" y="69"/>
			<point x="120" y="199"/>
			<point x="120" y="364" type="curve" smooth="yes"/>
			<point x="120" y="444" type="line"/>
			<point x="45" y="444" type="line"/>
			<point x="45" y="364" type="line" smooth="yes"/>
			<point x="45" y="168"/>
			<point x="90" y="-5"/>
		</contour>
	</outline>
</glyph>
